<svg width="396" height="396" viewBox="0 0 396 396" fill="none" xmlns="http://www.w3.org/2000/svg">
<rect y="197.99" width="280" height="280" transform="rotate(-45 0 197.99)" fill="white"/>
<path d="M229.65 296.29L132.01 198.64L230.65 100V143.59L175.58 198.65L229.65 252.72L284.71 197.65H328.3L229.66 296.3L229.65 296.29ZM134.83 198.64L229.65 293.47L323.47 199.64H285.54L229.66 255.53L172.77 198.64L228.66 142.76V104.82L134.84 198.64H134.83Z" fill="#064948"/>
<path d="M324.04 194.39H280.45L263.31 177.26L257.39 183.19L235.6 161.4L263.31 133.69L324.03 194.4L324.04 194.39ZM281.28 192.39H319.21L263.31 136.5L238.42 161.39L257.39 180.35L263.31 174.42L281.27 192.38L281.28 192.39Z" fill="#129797"/>
<path d="M218.7 198.64L163.23 254.12L107.76 198.64L163.23 143.17V102.41L67 198.64L163.23 294.88L259.46 198.64H218.7Z" fill="#064948"/>
<path d="M217.279 155.46L196.899 135.09L158.979 173.01V193.39V213.77L179.359 193.39L196.899 175.84L214.449 193.39H255.21L217.279 155.46Z" fill="#129797"/>
<path d="M157.98 216.18V172.59L196.9 133.67L257.62 194.38H214.03L196.89 177.24L157.97 216.17L157.98 216.18ZM159.98 173.42V211.35L196.9 174.42L214.86 192.38H252.79L196.89 136.49L159.97 173.41L159.98 173.42Z" fill="#129797"/>
</svg>
