<svg width="1920" height="549" viewBox="0 0 1920 549" fill="none" xmlns="http://www.w3.org/2000/svg">
<g clip-path="url(#clip0_37_293)">
<rect width="1920" height="549" fill="#1B4948"/>
<path d="M1896.17 274.668L1906.15 264.695L1924.71 283.259V293.236V303.213L1914.73 293.236L1906.15 284.645L1897.56 293.236H1877.61L1896.17 274.668Z" fill="#129797"/>
<path d="M1925.2 304.393V283.053L1906.15 264L1876.43 293.721H1897.76L1906.15 285.33L1925.2 304.388L1925.2 304.393ZM1924.22 283.46V302.029L1906.15 283.949L1897.36 292.742H1878.79L1906.15 265.381L1924.22 283.455L1924.22 283.46Z" fill="#129797"/>
<path d="M1831.31 274.668L1841.28 264.695L1859.84 283.259V293.236V303.213L1849.87 293.236L1841.28 284.645L1832.69 293.236H1812.74L1831.31 274.668Z" fill="#129797"/>
<path d="M1860.33 304.393V283.053L1841.28 264L1811.56 293.721H1832.9L1841.29 285.33L1860.34 304.388L1860.33 304.393ZM1859.35 283.46V302.029L1841.28 283.949L1832.49 292.742H1813.93L1841.29 265.381L1859.36 283.455L1859.35 283.46Z" fill="#129797"/>
<path d="M1766.44 274.668L1776.42 264.695L1794.98 283.259V293.236V303.213L1785 293.236L1776.42 284.645L1767.83 293.236H1747.88L1766.44 274.668Z" fill="#129797"/>
<path d="M1795.47 304.393V283.053L1776.42 264L1746.7 293.721H1768.03L1776.42 285.33L1795.47 304.388L1795.47 304.393ZM1794.49 283.46V302.029L1776.42 283.949L1767.63 292.742H1749.06L1776.42 265.381L1794.49 283.455L1794.49 283.46Z" fill="#129797"/>
<path d="M1701.58 274.668L1711.55 264.695L1730.11 283.259V293.236V303.213L1720.14 293.236L1711.55 284.645L1702.96 293.236H1683.01L1701.58 274.668Z" fill="#129797"/>
<path d="M1730.6 304.393V283.053L1711.55 264L1681.83 293.721H1703.17L1711.56 285.33L1730.61 304.388L1730.6 304.393ZM1729.63 283.46V302.029L1711.55 283.949L1702.76 292.742H1684.2L1711.56 265.381L1729.63 283.455L1729.63 283.46Z" fill="#129797"/>
<path d="M1636.71 274.668L1646.69 264.695L1665.25 283.259V293.236V303.213L1655.27 293.236L1646.69 284.645L1638.1 293.236H1618.15L1636.71 274.668Z" fill="#129797"/>
<path d="M1665.74 304.393V283.053L1646.69 264L1616.97 293.721H1638.3L1646.69 285.33L1665.74 304.388L1665.74 304.393ZM1664.76 283.46V302.029L1646.69 283.949L1637.9 292.742H1619.33L1646.69 265.381L1664.76 283.455L1664.76 283.46Z" fill="#129797"/>
<path d="M1571.85 274.668L1581.82 264.695L1600.38 283.259V293.236V303.213L1590.41 293.236L1581.82 284.645L1573.23 293.236H1553.28L1571.85 274.668Z" fill="#129797"/>
<path d="M1600.87 304.393V283.053L1581.82 264L1552.1 293.721H1573.44L1581.83 285.33L1600.88 304.388L1600.87 304.393ZM1599.9 283.46V302.029L1581.82 283.949L1573.03 292.742H1554.47L1581.83 265.381L1599.9 283.455L1599.9 283.46Z" fill="#129797"/>
<path d="M1506.98 274.668L1516.96 264.695L1535.52 283.259V293.236V303.213L1525.54 293.236L1516.96 284.645L1508.37 293.236H1488.42L1506.98 274.668Z" fill="#129797"/>
<path d="M1536.01 304.393V283.053L1516.96 264L1487.24 293.721H1508.57L1516.96 285.33L1536.01 304.388L1536.01 304.393ZM1535.03 283.46V302.029L1516.96 283.949L1508.17 292.742H1489.6L1516.96 265.381L1535.03 283.455L1535.03 283.46Z" fill="#129797"/>
<path d="M1442.12 274.668L1452.09 264.695L1470.65 283.259V293.236V303.213L1460.68 293.236L1452.09 284.645L1443.5 293.236H1423.55L1442.12 274.668Z" fill="#129797"/>
<path d="M1471.14 304.393V283.053L1452.09 264L1422.37 293.721H1443.71L1452.1 285.33L1471.15 304.388L1471.14 304.393ZM1470.17 283.46V302.029L1452.09 283.949L1443.3 292.742H1424.74L1452.1 265.381L1470.17 283.455L1470.17 283.46Z" fill="#129797"/>
<path d="M1377.25 274.668L1387.23 264.695L1405.79 283.259V293.236V303.213L1395.81 293.236L1387.23 284.645L1378.64 293.236H1358.69L1377.25 274.668Z" fill="#129797"/>
<path d="M1406.28 304.393V283.053L1387.23 264L1357.51 293.721H1378.84L1387.23 285.33L1406.28 304.388L1406.28 304.393ZM1405.3 283.46V302.029L1387.23 283.949L1378.44 292.742H1359.87L1387.23 265.381L1405.31 283.455L1405.3 283.46Z" fill="#129797"/>
<path d="M1312.39 274.668L1322.36 264.695L1340.92 283.259V293.236V303.213L1330.95 293.236L1322.36 284.645L1313.77 293.236H1293.82L1312.39 274.668Z" fill="#129797"/>
<path d="M1341.41 304.393V283.053L1322.36 264L1292.64 293.721H1313.98L1322.37 285.33L1341.42 304.388L1341.41 304.393ZM1340.44 283.46V302.029L1322.36 283.949L1313.57 292.742H1295.01L1322.37 265.381L1340.44 283.455L1340.44 283.46Z" fill="#129797"/>
<path d="M1247.52 274.668L1257.5 264.695L1276.06 283.259V293.236V303.213L1266.08 293.236L1257.5 284.645L1248.91 293.236H1228.96L1247.52 274.668Z" fill="#129797"/>
<path d="M1276.55 304.393V283.053L1257.5 264L1227.78 293.721H1249.11L1257.5 285.33L1276.55 304.388L1276.55 304.393ZM1275.57 283.46V302.029L1257.5 283.949L1248.71 292.742H1230.14L1257.5 265.381L1275.58 283.455L1275.57 283.46Z" fill="#129797"/>
<path d="M1182.66 274.668L1192.63 264.695L1211.2 283.259V293.236V303.213L1201.22 293.236L1192.63 284.645L1184.04 293.236H1164.09L1182.66 274.668Z" fill="#129797"/>
<path d="M1211.68 304.393V283.053L1192.63 264L1162.91 293.721H1184.25L1192.64 285.33L1211.69 304.388L1211.68 304.393ZM1210.71 283.46V302.029L1192.63 283.949L1183.84 292.742H1165.28L1192.64 265.381L1210.71 283.455L1210.71 283.46Z" fill="#129797"/>
<path d="M1117.79 274.668L1127.77 264.695L1146.33 283.259V293.236V303.213L1136.35 293.236L1127.77 284.645L1119.18 293.236H1099.23L1117.79 274.668Z" fill="#129797"/>
<path d="M1146.82 304.393V283.053L1127.77 264L1098.05 293.721H1119.38L1127.77 285.33L1146.82 304.388L1146.82 304.393ZM1145.84 283.46V302.029L1127.77 283.949L1118.98 292.742H1100.41L1127.77 265.381L1145.85 283.455L1145.84 283.46Z" fill="#129797"/>
<path d="M1052.93 274.668L1062.9 264.695L1081.47 283.259V293.236V303.213L1071.49 293.236L1062.9 284.645L1054.31 293.236H1034.36L1052.93 274.668Z" fill="#129797"/>
<path d="M1081.95 304.393V283.053L1062.9 264L1033.18 293.721H1054.52L1062.91 285.33L1081.96 304.388L1081.95 304.393ZM1080.98 283.46V302.029L1062.9 283.949L1054.11 292.742H1035.55L1062.91 265.381L1080.98 283.455L1080.98 283.46Z" fill="#129797"/>
<path d="M988.063 274.668L998.039 264.695L1016.6 283.259V293.236V303.213L1006.62 293.236L998.039 284.645L989.449 293.236H969.497L988.063 274.668Z" fill="#129797"/>
<path d="M1017.09 304.393V283.053L998.039 264L968.318 293.721H989.654L998.044 285.33L1017.09 304.388L1017.09 304.393ZM1016.11 283.46V302.029L998.039 283.949L989.248 292.742H970.682L998.044 265.381L1016.12 283.455L1016.11 283.46Z" fill="#129797"/>
<path d="M923.199 274.668L933.174 264.695L951.735 283.259V293.236V303.213L941.76 293.236L933.174 284.645L924.584 293.236H904.633L923.199 274.668Z" fill="#129797"/>
<path d="M952.225 304.393V283.053L933.174 264L903.453 293.721H924.789L933.179 285.33L952.229 304.388L952.225 304.393ZM951.246 283.46V302.029L933.174 283.949L924.383 292.742H905.817L933.179 265.381L951.251 283.455L951.246 283.46Z" fill="#129797"/>
<path d="M858.334 274.668L868.31 264.695L886.871 283.259V293.236V303.213L876.895 293.236L868.31 284.645L859.72 293.236H839.768L858.334 274.668Z" fill="#129797"/>
<path d="M887.36 304.393V283.053L868.31 264L838.589 293.721H859.925L868.315 285.33L887.365 304.388L887.36 304.393ZM886.381 283.46V302.029L868.31 283.949L859.519 292.742H840.953L868.315 265.381L886.386 283.455L886.381 283.46Z" fill="#129797"/>
<path d="M793.469 274.668L803.445 264.695L822.006 283.259V293.236V303.213L812.03 293.236L803.445 284.645L794.854 293.236H774.903L793.469 274.668Z" fill="#129797"/>
<path d="M822.495 304.393V283.053L803.445 264L773.723 293.721H795.06L803.449 285.33L822.5 304.388L822.495 304.393ZM821.516 283.46V302.029L803.445 283.949L794.653 292.742H776.087L803.449 265.381L821.521 283.455L821.516 283.46Z" fill="#129797"/>
<path d="M728.604 274.668L738.58 264.695L757.141 283.259V293.236V303.213L747.165 293.236L738.58 284.645L729.989 293.236H710.038L728.604 274.668Z" fill="#129797"/>
<path d="M757.63 304.393V283.053L738.579 264L708.858 293.721H730.194L738.584 285.33L757.635 304.388L757.63 304.393ZM756.651 283.46V302.029L738.579 283.949L729.788 292.742H711.222L738.584 265.381L756.656 283.455L756.651 283.46Z" fill="#129797"/>
<path d="M663.739 274.668L673.715 264.695L692.276 283.259V293.236V303.213L682.3 293.236L673.715 284.645L665.124 293.236H645.173L663.739 274.668Z" fill="#129797"/>
<path d="M692.765 304.393V283.053L673.715 264L643.993 293.721H665.33L673.719 285.33L692.77 304.388L692.765 304.393ZM691.786 283.46V302.029L673.715 283.949L664.923 292.742H646.357L673.719 265.381L691.791 283.455L691.786 283.46Z" fill="#129797"/>
<path d="M598.874 274.668L608.85 264.695L627.411 283.259V293.236V303.213L617.436 293.236L608.85 284.645L600.26 293.236H580.308L598.874 274.668Z" fill="#129797"/>
<path d="M627.9 304.393V283.053L608.85 264L579.129 293.721H600.465L608.855 285.33L627.905 304.388L627.9 304.393ZM626.921 283.46V302.029L608.85 283.949L600.059 292.742H581.493L608.855 265.381L626.926 283.455L626.921 283.46Z" fill="#129797"/>
<path d="M534.009 274.668L543.985 264.695L562.546 283.259V293.236V303.213L552.57 293.236L543.985 284.645L535.394 293.236H515.443L534.009 274.668Z" fill="#129797"/>
<path d="M563.036 304.393V283.053L543.985 264L514.264 293.721H535.6L543.99 285.33L563.041 304.388L563.036 304.393ZM562.057 283.46V302.029L543.985 283.949L535.194 292.742H516.628L543.99 265.381L562.062 283.455L562.057 283.46Z" fill="#129797"/>
<path d="M469.144 274.668L479.12 264.695L497.681 283.259V293.236V303.213L487.706 293.236L479.12 284.645L470.53 293.236H450.578L469.144 274.668Z" fill="#129797"/>
<path d="M498.17 304.393V283.053L479.119 264L449.398 293.721H470.735L479.124 285.33L498.175 304.388L498.17 304.393ZM497.191 283.46V302.029L479.119 283.949L470.328 292.742H451.762L479.124 265.381L497.196 283.455L497.191 283.46Z" fill="#129797"/>
<path d="M404.28 274.668L414.255 264.695L432.816 283.259V293.236V303.213L422.841 293.236L414.255 284.645L405.665 293.236H385.714L404.28 274.668Z" fill="#129797"/>
<path d="M433.305 304.393V283.053L414.255 264L384.533 293.721H405.87L414.259 285.33L433.31 304.388L433.305 304.393ZM432.326 283.46V302.029L414.255 283.949L405.464 292.742H386.898L414.259 265.381L432.331 283.455L432.326 283.46Z" fill="#129797"/>
<path d="M339.414 274.668L349.39 264.695L367.951 283.259V293.236V303.213L357.976 293.236L349.39 284.645L340.8 293.236H320.848L339.414 274.668Z" fill="#129797"/>
<path d="M368.44 304.393V283.053L349.39 264L319.669 293.721H341.005L349.395 285.33L368.445 304.388L368.44 304.393ZM367.461 283.46V302.029L349.39 283.949L340.599 292.742H322.033L349.395 265.381L367.466 283.455L367.461 283.46Z" fill="#129797"/>
<path d="M274.55 274.668L284.525 264.695L303.086 283.259V293.236V303.213L293.111 293.236L284.525 284.645L275.935 293.236H255.984L274.55 274.668Z" fill="#129797"/>
<path d="M303.576 304.393V283.053L284.525 264L254.804 293.721H276.14L284.53 285.33L303.581 304.388L303.576 304.393ZM302.597 283.46V302.029L284.525 283.949L275.734 292.742H257.168L284.53 265.381L302.602 283.455L302.597 283.46Z" fill="#129797"/>
<path d="M209.685 274.668L219.661 264.695L238.222 283.259V293.236V303.213L228.246 293.236L219.661 284.645L211.07 293.236H191.119L209.685 274.668Z" fill="#129797"/>
<path d="M238.711 304.393V283.053L219.66 264L189.939 293.721H211.276L219.665 285.33L238.716 304.388L238.711 304.393ZM237.732 283.46V302.029L219.66 283.949L210.869 292.742H192.303L219.665 265.381L237.737 283.455L237.732 283.46Z" fill="#129797"/>
<path d="M144.82 274.668L154.795 264.695L173.356 283.259V293.236V303.213L163.381 293.236L154.795 284.645L146.205 293.236H126.254L144.82 274.668Z" fill="#129797"/>
<path d="M173.846 304.393V283.053L154.795 264L125.074 293.721H146.41L154.8 285.33L173.851 304.388L173.846 304.393ZM172.867 283.46V302.029L154.795 283.949L146.004 292.742H127.438L154.8 265.381L172.872 283.455L172.867 283.46Z" fill="#129797"/>
<path d="M79.956 274.668L89.9316 264.695L108.493 283.259V293.236V303.213L98.5171 293.236L89.9316 284.645L81.3412 293.236H61.39L79.956 274.668Z" fill="#129797"/>
<path d="M108.981 304.393V283.053L89.9309 264L60.2096 293.721H81.546L89.9357 285.33L108.986 304.388L108.981 304.393ZM108.002 283.46V302.029L89.9309 283.949L81.1398 292.742H62.5738L89.9357 265.381L108.007 283.455L108.002 283.46Z" fill="#129797"/>
<path d="M15.0902 274.668L25.0659 264.695L43.627 283.259V293.236V303.213L33.6513 293.236L25.0659 284.645L16.4755 293.236H-3.47577L15.0902 274.668Z" fill="#129797"/>
<path d="M44.1162 304.393V283.053L25.0656 264L-4.65564 293.721H16.6808L25.0705 285.33L44.1211 304.388L44.1162 304.393ZM43.1372 283.46V302.029L25.0656 283.949L16.2745 292.742H-2.29145L25.0705 265.381L43.1421 283.455L43.1372 283.46Z" fill="#129797"/>
<path d="M24.3746 324.713L14.399 314.741L-4.16211 333.305V343.282V353.259L5.81351 343.282L14.399 334.691L22.9894 343.282H42.9406L24.3746 324.713Z" fill="#129797"/>
<path d="M-4.65136 354.439V333.099L14.3992 314.046L44.1205 343.767H22.784L14.3943 335.376L-4.65625 354.434L-4.65136 354.439ZM-3.6724 333.506V352.074L14.3992 333.995L23.1903 342.788H41.7563L14.3943 315.426L-3.67729 333.501L-3.6724 333.506Z" fill="#129797"/>
<path d="M89.2398 324.713L79.2642 314.741L60.7031 333.305V343.282V353.259L70.6787 343.282L79.2642 334.691L87.8546 343.282H107.806L89.2398 324.713Z" fill="#129797"/>
<path d="M60.2139 354.439V333.099L79.2645 314.046L108.986 343.767H87.6493L79.2596 335.376L60.209 354.434L60.2139 354.439ZM61.1928 333.506V352.074L79.2645 333.995L88.0555 342.788H106.622L79.2596 315.426L61.1879 333.501L61.1928 333.506Z" fill="#129797"/>
<path d="M154.105 324.713L144.129 314.741L125.568 333.305V343.282V353.259L135.543 343.282L144.129 334.691L152.719 343.282H172.671L154.105 324.713Z" fill="#129797"/>
<path d="M125.079 354.439V333.099L144.129 314.046L173.85 343.767H152.514L144.124 335.376L125.074 354.434L125.079 354.439ZM126.058 333.506V352.074L144.129 333.995L152.92 342.788H171.486L144.124 315.426L126.053 333.501L126.058 333.506Z" fill="#129797"/>
<path d="M218.969 324.713L208.994 314.741L190.433 333.305V343.282V353.259L200.408 343.282L208.994 334.691L217.584 343.282H237.535L218.969 324.713Z" fill="#129797"/>
<path d="M189.943 354.439V333.099L208.994 314.046L238.715 343.767H217.379L208.989 335.376L189.938 354.434L189.943 354.439ZM190.922 333.506V352.074L208.994 333.995L217.785 342.788H236.351L208.989 315.426L190.917 333.501L190.922 333.506Z" fill="#129797"/>
<path d="M283.835 324.713L273.859 314.741L255.298 333.305V343.282V353.259L265.273 343.282L273.859 334.691L282.449 343.282H302.401L283.835 324.713Z" fill="#129797"/>
<path d="M254.809 354.439V333.099L273.859 314.046L303.58 343.767H282.244L273.854 335.376L254.804 354.434L254.809 354.439ZM255.788 333.506V352.074L273.859 333.995L282.65 342.788H301.216L273.854 315.426L255.783 333.501L255.788 333.506Z" fill="#129797"/>
<path d="M348.7 324.713L338.724 314.741L320.163 333.305V343.282V353.259L330.139 343.282L338.724 334.691L347.315 343.282H367.266L348.7 324.713Z" fill="#129797"/>
<path d="M319.673 354.439V333.099L338.724 314.046L368.445 343.767H347.109L338.719 335.376L319.668 354.434L319.673 354.439ZM320.652 333.506V352.074L338.724 333.995L347.515 342.788H366.081L338.719 315.426L320.647 333.501L320.652 333.506Z" fill="#129797"/>
<path d="M413.564 324.713L403.588 314.741L385.027 333.305V343.282V353.259L395.003 343.282L403.588 334.691L412.179 343.282H432.13L413.564 324.713Z" fill="#129797"/>
<path d="M384.539 354.439V333.099L403.589 314.046L433.31 343.767H411.974L403.584 335.376L384.534 354.434L384.539 354.439ZM385.518 333.506V352.074L403.589 333.995L412.38 342.788H430.946L403.584 315.426L385.513 333.501L385.518 333.506Z" fill="#129797"/>
<path d="M478.429 324.713L468.454 314.741L449.893 333.305V343.282V353.259L459.868 343.282L468.454 334.691L477.044 343.282H496.995L478.429 324.713Z" fill="#129797"/>
<path d="M449.403 354.439V333.099L468.454 314.046L498.175 343.767H476.839L468.449 335.376L449.398 354.434L449.403 354.439ZM450.382 333.506V352.074L468.454 333.995L477.245 342.788H495.811L468.449 315.426L450.377 333.501L450.382 333.506Z" fill="#129797"/>
<path d="M543.295 324.713L533.319 314.741L514.758 333.305V343.282V353.259L524.733 343.282L533.319 334.691L541.909 343.282H561.861L543.295 324.713Z" fill="#129797"/>
<path d="M514.268 354.439V333.099L533.319 314.046L563.04 343.767H541.703L533.314 335.376L514.263 354.434L514.268 354.439ZM515.247 333.506V352.074L533.319 333.995L542.11 342.788H560.676L533.314 315.426L515.242 333.501L515.247 333.506Z" fill="#129797"/>
<path d="M608.159 324.713L598.184 314.741L579.623 333.305V343.282V353.259L589.598 343.282L598.184 334.691L606.774 343.282H626.725L608.159 324.713Z" fill="#129797"/>
<path d="M579.133 354.439V333.099L598.184 314.046L627.905 343.767H606.569L598.179 335.376L579.128 354.434L579.133 354.439ZM580.112 333.506V352.074L598.184 333.995L606.975 342.788H625.541L598.179 315.426L580.107 333.501L580.112 333.506Z" fill="#129797"/>
<path d="M673.024 324.713L663.048 314.741L644.487 333.305V343.282V353.259L654.463 343.282L663.048 334.691L671.639 343.282H691.59L673.024 324.713Z" fill="#129797"/>
<path d="M643.998 354.439V333.099L663.049 314.046L692.77 343.767H671.433L663.044 335.376L643.993 354.434L643.998 354.439ZM644.977 333.506V352.074L663.049 333.995L671.84 342.788H690.406L663.044 315.426L644.972 333.501L644.977 333.506Z" fill="#129797"/>
<path d="M737.889 324.713L727.914 314.741L709.353 333.305V343.282V353.259L719.328 343.282L727.914 334.691L736.504 343.282H756.455L737.889 324.713Z" fill="#129797"/>
<path d="M708.863 354.439V333.099L727.914 314.046L757.635 343.767H736.299L727.909 335.376L708.858 354.434L708.863 354.439ZM709.842 333.506V352.074L727.914 333.995L736.705 342.788H755.271L727.909 315.426L709.837 333.501L709.842 333.506Z" fill="#129797"/>
<path d="M802.754 324.713L792.778 314.741L774.217 333.305V343.282V353.259L784.193 343.282L792.778 334.691L801.369 343.282H821.32L802.754 324.713Z" fill="#129797"/>
<path d="M773.728 354.439V333.099L792.779 314.046L822.5 343.767H801.163L792.774 335.376L773.723 354.434L773.728 354.439ZM774.707 333.506V352.074L792.779 333.995L801.57 342.788H820.136L792.774 315.426L774.702 333.501L774.707 333.506Z" fill="#129797"/>
<path d="M867.619 324.713L857.643 314.741L839.082 333.305V343.282V353.259L849.058 343.282L857.643 334.691L866.234 343.282H886.185L867.619 324.713Z" fill="#129797"/>
<path d="M838.593 354.439V333.099L857.643 314.046L887.365 343.767H866.028L857.638 335.376L838.588 354.434L838.593 354.439ZM839.572 333.506V352.074L857.643 333.995L866.434 342.788H885L857.638 315.426L839.567 333.501L839.572 333.506Z" fill="#129797"/>
<path d="M932.484 324.713L922.508 314.741L903.947 333.305V343.282V353.259L913.923 343.282L922.508 334.691L931.099 343.282H951.05L932.484 324.713Z" fill="#129797"/>
<path d="M903.458 354.439V333.099L922.509 314.046L952.23 343.767H930.893L922.504 335.376L903.453 354.434L903.458 354.439ZM904.437 333.506V352.074L922.509 333.995L931.3 342.788H949.866L922.504 315.426L904.432 333.501L904.437 333.506Z" fill="#129797"/>
<path d="M997.348 324.713L987.373 314.741L968.812 333.305V343.282V353.259L978.787 343.282L987.373 334.691L995.963 343.282H1015.91L997.348 324.713Z" fill="#129797"/>
<path d="M968.322 354.439V333.099L987.373 314.046L1017.09 343.767H995.758L987.368 335.376L968.317 354.434L968.322 354.439ZM969.301 333.506V352.074L987.373 333.995L996.164 342.788H1014.73L987.368 315.426L969.296 333.501L969.301 333.506Z" fill="#129797"/>
<path d="M1062.21 324.713L1052.24 314.741L1033.68 333.305V343.282V353.259L1043.65 343.282L1052.24 334.691L1060.83 343.282H1080.78L1062.21 324.713Z" fill="#129797"/>
<path d="M1033.19 354.439V333.099L1052.24 314.046L1081.96 343.767H1060.62L1052.23 335.376L1033.18 354.434L1033.19 354.439ZM1034.17 333.506V352.074L1052.24 333.995L1061.03 342.788H1079.6L1052.23 315.426L1034.16 333.501L1034.17 333.506Z" fill="#129797"/>
<path d="M1127.08 324.713L1117.1 314.741L1098.54 333.305V343.282V353.259L1108.52 343.282L1117.1 334.691L1125.69 343.282H1145.64L1127.08 324.713Z" fill="#129797"/>
<path d="M1098.05 354.439V333.099L1117.1 314.046L1146.82 343.767H1125.49L1117.1 335.376L1098.05 354.434L1098.05 354.439ZM1099.03 333.506V352.074L1117.1 333.995L1125.89 342.788H1144.46L1117.1 315.426L1099.03 333.501L1099.03 333.506Z" fill="#129797"/>
<path d="M1191.94 324.713L1181.97 314.741L1163.41 333.305V343.282V353.259L1173.38 343.282L1181.97 334.691L1190.56 343.282H1210.51L1191.94 324.713Z" fill="#129797"/>
<path d="M1162.92 354.439V333.099L1181.97 314.046L1211.69 343.767H1190.35L1181.96 335.376L1162.91 354.434L1162.92 354.439ZM1163.9 333.506V352.074L1181.97 333.995L1190.76 342.788H1209.33L1181.96 315.426L1163.89 333.501L1163.9 333.506Z" fill="#129797"/>
<path d="M1256.81 324.713L1246.83 314.741L1228.27 333.305V343.282V353.259L1238.25 343.282L1246.83 334.691L1255.42 343.282H1275.37L1256.81 324.713Z" fill="#129797"/>
<path d="M1227.78 354.439V333.099L1246.83 314.046L1276.55 343.767H1255.22L1246.83 335.376L1227.78 354.434L1227.78 354.439ZM1228.76 333.506V352.074L1246.83 333.995L1255.62 342.788H1274.19L1246.83 315.426L1228.76 333.501L1228.76 333.506Z" fill="#129797"/>
<path d="M1321.67 324.713L1311.7 314.741L1293.14 333.305V343.282V353.259L1303.11 343.282L1311.7 334.691L1320.29 343.282H1340.24L1321.67 324.713Z" fill="#129797"/>
<path d="M1292.65 354.439V333.099L1311.7 314.046L1341.42 343.767H1320.08L1311.69 335.376L1292.64 354.434L1292.65 354.439ZM1293.63 333.506V352.074L1311.7 333.995L1320.49 342.788H1339.05L1311.69 315.426L1293.62 333.501L1293.63 333.506Z" fill="#129797"/>
<path d="M1386.54 324.713L1376.56 314.741L1358 333.305V343.282V353.259L1367.98 343.282L1376.56 334.691L1385.15 343.282H1405.1L1386.54 324.713Z" fill="#129797"/>
<path d="M1357.51 354.439V333.099L1376.56 314.046L1406.28 343.767H1384.95L1376.56 335.376L1357.51 354.434L1357.51 354.439ZM1358.49 333.506V352.074L1376.56 333.995L1385.35 342.788H1403.92L1376.56 315.426L1358.49 333.501L1358.49 333.506Z" fill="#129797"/>
<path d="M1451.4 324.713L1441.43 314.741L1422.87 333.305V343.282V353.259L1432.84 343.282L1441.43 334.691L1450.02 343.282H1469.97L1451.4 324.713Z" fill="#129797"/>
<path d="M1422.38 354.439V333.099L1441.43 314.046L1471.15 343.767H1449.81L1441.42 335.376L1422.37 354.434L1422.38 354.439ZM1423.36 333.506V352.074L1441.43 333.995L1450.22 342.788H1468.78L1441.42 315.426L1423.35 333.501L1423.36 333.506Z" fill="#129797"/>
<path d="M1516.27 324.713L1506.29 314.741L1487.73 333.305V343.282V353.259L1497.71 343.282L1506.29 334.691L1514.88 343.282H1534.83L1516.27 324.713Z" fill="#129797"/>
<path d="M1487.24 354.439V333.099L1506.29 314.046L1536.01 343.767H1514.68L1506.29 335.376L1487.24 354.434L1487.24 354.439ZM1488.22 333.506V352.074L1506.29 333.995L1515.08 342.788H1533.65L1506.29 315.426L1488.22 333.501L1488.22 333.506Z" fill="#129797"/>
<path d="M1581.13 324.713L1571.16 314.741L1552.6 333.305V343.282V353.259L1562.57 343.282L1571.16 334.691L1579.75 343.282H1599.7L1581.13 324.713Z" fill="#129797"/>
<path d="M1552.11 354.439V333.099L1571.16 314.046L1600.88 343.767H1579.54L1571.15 335.376L1552.1 354.434L1552.11 354.439ZM1553.09 333.506V352.074L1571.16 333.995L1579.95 342.788H1598.51L1571.15 315.426L1553.08 333.501L1553.09 333.506Z" fill="#129797"/>
<path d="M1646 324.713L1636.02 314.741L1617.46 333.305V343.282V353.259L1627.44 343.282L1636.02 334.691L1644.61 343.282H1664.56L1646 324.713Z" fill="#129797"/>
<path d="M1616.97 354.439V333.099L1636.02 314.046L1665.74 343.767H1644.41L1636.02 335.376L1616.97 354.434L1616.97 354.439ZM1617.95 333.506V352.074L1636.02 333.995L1644.81 342.788H1663.38L1636.02 315.426L1617.95 333.501L1617.95 333.506Z" fill="#129797"/>
<path d="M1710.86 324.713L1700.89 314.741L1682.33 333.305V343.282V353.259L1692.3 343.282L1700.89 334.691L1709.48 343.282H1729.43L1710.86 324.713Z" fill="#129797"/>
<path d="M1681.84 354.439V333.099L1700.89 314.046L1730.61 343.767H1709.27L1700.88 335.376L1681.83 354.434L1681.84 354.439ZM1682.82 333.506V352.074L1700.89 333.995L1709.68 342.788H1728.24L1700.88 315.426L1682.81 333.501L1682.82 333.506Z" fill="#129797"/>
<path d="M1775.73 324.713L1765.75 314.741L1747.19 333.305V343.282V353.259L1757.17 343.282L1765.75 334.691L1774.34 343.282H1794.29L1775.73 324.713Z" fill="#129797"/>
<path d="M1746.7 354.439V333.099L1765.75 314.046L1795.47 343.767H1774.14L1765.75 335.376L1746.7 354.434L1746.7 354.439ZM1747.68 333.506V352.074L1765.75 333.995L1774.54 342.788H1793.11L1765.75 315.426L1747.68 333.501L1747.68 333.506Z" fill="#129797"/>
<path d="M1840.59 324.713L1830.62 314.741L1812.05 333.305V343.282V353.259L1822.03 343.282L1830.62 334.691L1839.21 343.282H1859.16L1840.59 324.713Z" fill="#129797"/>
<path d="M1811.57 354.439V333.099L1830.62 314.046L1860.34 343.767H1839L1830.61 335.376L1811.56 354.434L1811.57 354.439ZM1812.54 333.506V352.074L1830.62 333.995L1839.41 342.788H1857.97L1830.61 315.426L1812.54 333.501L1812.54 333.506Z" fill="#129797"/>
<path d="M1905.46 324.713L1895.48 314.741L1876.92 333.305V343.282V353.259L1886.9 343.282L1895.48 334.691L1904.07 343.282H1924.02L1905.46 324.713Z" fill="#129797"/>
<path d="M1876.43 354.439V333.099L1895.48 314.046L1925.2 343.767H1903.87L1895.48 335.376L1876.43 354.434L1876.43 354.439ZM1877.41 333.506V352.074L1895.48 333.995L1904.27 342.788H1922.84L1895.48 315.426L1877.4 333.501L1877.41 333.506Z" fill="#129797"/>
<path d="M1896.17 374.759L1906.15 364.787L1924.71 383.351V393.328V403.305L1914.73 393.328L1906.15 384.736L1897.56 393.328H1877.61L1896.17 374.759Z" fill="#129797"/>
<path d="M1925.2 404.485V383.145L1906.15 364.092L1876.43 393.813H1897.76L1906.15 385.422L1925.2 404.48L1925.2 404.485ZM1924.22 383.552V402.12L1906.15 384.041L1897.36 392.833H1878.79L1906.15 365.472L1924.22 383.547L1924.22 383.552Z" fill="#129797"/>
<path d="M1831.31 374.759L1841.28 364.787L1859.84 383.351V393.328V403.305L1849.87 393.328L1841.28 384.736L1832.69 393.328H1812.74L1831.31 374.759Z" fill="#129797"/>
<path d="M1860.33 404.485V383.145L1841.28 364.092L1811.56 393.813H1832.9L1841.29 385.422L1860.34 404.48L1860.33 404.485ZM1859.35 383.552V402.12L1841.28 384.041L1832.49 392.833H1813.93L1841.29 365.472L1859.36 383.547L1859.35 383.552Z" fill="#129797"/>
<path d="M1766.44 374.759L1776.42 364.787L1794.98 383.351V393.328V403.305L1785 393.328L1776.42 384.736L1767.83 393.328H1747.88L1766.44 374.759Z" fill="#129797"/>
<path d="M1795.47 404.485V383.145L1776.42 364.092L1746.7 393.813H1768.03L1776.42 385.422L1795.47 404.48L1795.47 404.485ZM1794.49 383.552V402.12L1776.42 384.041L1767.63 392.833H1749.06L1776.42 365.472L1794.49 383.547L1794.49 383.552Z" fill="#129797"/>
<path d="M1701.58 374.759L1711.55 364.787L1730.11 383.351V393.328V403.305L1720.14 393.328L1711.55 384.736L1702.96 393.328H1683.01L1701.58 374.759Z" fill="#129797"/>
<path d="M1730.6 404.485V383.145L1711.55 364.092L1681.83 393.813H1703.17L1711.56 385.422L1730.61 404.48L1730.6 404.485ZM1729.63 383.552V402.12L1711.55 384.041L1702.76 392.833H1684.2L1711.56 365.472L1729.63 383.547L1729.63 383.552Z" fill="#129797"/>
<path d="M1636.71 374.759L1646.69 364.787L1665.25 383.351V393.328V403.305L1655.27 393.328L1646.69 384.736L1638.1 393.328H1618.15L1636.71 374.759Z" fill="#129797"/>
<path d="M1665.74 404.485V383.145L1646.69 364.092L1616.97 393.813H1638.3L1646.69 385.422L1665.74 404.48L1665.74 404.485ZM1664.76 383.552V402.12L1646.69 384.041L1637.9 392.833H1619.33L1646.69 365.472L1664.76 383.547L1664.76 383.552Z" fill="#129797"/>
<path d="M1571.85 374.759L1581.82 364.787L1600.38 383.351V393.328V403.305L1590.41 393.328L1581.82 384.736L1573.23 393.328H1553.28L1571.85 374.759Z" fill="#129797"/>
<path d="M1600.87 404.485V383.145L1581.82 364.092L1552.1 393.813H1573.44L1581.83 385.422L1600.88 404.48L1600.87 404.485ZM1599.9 383.552V402.12L1581.82 384.041L1573.03 392.833H1554.47L1581.83 365.472L1599.9 383.547L1599.9 383.552Z" fill="#129797"/>
<path d="M1506.98 374.759L1516.96 364.787L1535.52 383.351V393.328V403.305L1525.54 393.328L1516.96 384.736L1508.37 393.328H1488.42L1506.98 374.759Z" fill="#129797"/>
<path d="M1536.01 404.485V383.145L1516.96 364.092L1487.24 393.813H1508.57L1516.96 385.422L1536.01 404.48L1536.01 404.485ZM1535.03 383.552V402.12L1516.96 384.041L1508.17 392.833H1489.6L1516.96 365.472L1535.03 383.547L1535.03 383.552Z" fill="#129797"/>
<path d="M1442.12 374.759L1452.09 364.787L1470.65 383.351V393.328V403.305L1460.68 393.328L1452.09 384.736L1443.5 393.328H1423.55L1442.12 374.759Z" fill="#129797"/>
<path d="M1471.14 404.485V383.145L1452.09 364.092L1422.37 393.813H1443.71L1452.1 385.422L1471.15 404.48L1471.14 404.485ZM1470.17 383.552V402.12L1452.09 384.041L1443.3 392.833H1424.74L1452.1 365.472L1470.17 383.547L1470.17 383.552Z" fill="#129797"/>
<path d="M1377.25 374.759L1387.23 364.787L1405.79 383.351V393.328V403.305L1395.81 393.328L1387.23 384.736L1378.64 393.328H1358.69L1377.25 374.759Z" fill="#129797"/>
<path d="M1406.28 404.485V383.145L1387.23 364.092L1357.51 393.813H1378.84L1387.23 385.422L1406.28 404.48L1406.28 404.485ZM1405.3 383.552V402.12L1387.23 384.041L1378.44 392.833H1359.87L1387.23 365.472L1405.31 383.547L1405.3 383.552Z" fill="#129797"/>
<path d="M1312.39 374.759L1322.36 364.787L1340.92 383.351V393.328V403.305L1330.95 393.328L1322.36 384.736L1313.77 393.328H1293.82L1312.39 374.759Z" fill="#129797"/>
<path d="M1341.41 404.485V383.145L1322.36 364.092L1292.64 393.813H1313.98L1322.37 385.422L1341.42 404.48L1341.41 404.485ZM1340.44 383.552V402.12L1322.36 384.041L1313.57 392.833H1295.01L1322.37 365.472L1340.44 383.547L1340.44 383.552Z" fill="#129797"/>
<path d="M1247.52 374.759L1257.5 364.787L1276.06 383.351V393.328V403.305L1266.08 393.328L1257.5 384.736L1248.91 393.328H1228.96L1247.52 374.759Z" fill="#129797"/>
<path d="M1276.55 404.485V383.145L1257.5 364.092L1227.78 393.813H1249.11L1257.5 385.422L1276.55 404.48L1276.55 404.485ZM1275.57 383.552V402.12L1257.5 384.041L1248.71 392.833H1230.14L1257.5 365.472L1275.58 383.547L1275.57 383.552Z" fill="#129797"/>
<path d="M1182.66 374.759L1192.63 364.787L1211.2 383.351V393.328V403.305L1201.22 393.328L1192.63 384.736L1184.04 393.328H1164.09L1182.66 374.759Z" fill="#129797"/>
<path d="M1211.68 404.485V383.145L1192.63 364.092L1162.91 393.813H1184.25L1192.64 385.422L1211.69 404.48L1211.68 404.485ZM1210.71 383.552V402.12L1192.63 384.041L1183.84 392.833H1165.28L1192.64 365.472L1210.71 383.547L1210.71 383.552Z" fill="#129797"/>
<path d="M1117.79 374.759L1127.77 364.787L1146.33 383.351V393.328V403.305L1136.35 393.328L1127.77 384.736L1119.18 393.328H1099.23L1117.79 374.759Z" fill="#129797"/>
<path d="M1146.82 404.485V383.145L1127.77 364.092L1098.05 393.813H1119.38L1127.77 385.422L1146.82 404.48L1146.82 404.485ZM1145.84 383.552V402.12L1127.77 384.041L1118.98 392.833H1100.41L1127.77 365.472L1145.85 383.547L1145.84 383.552Z" fill="#129797"/>
<path d="M1052.93 374.759L1062.9 364.787L1081.47 383.351V393.328V403.305L1071.49 393.328L1062.9 384.736L1054.31 393.328H1034.36L1052.93 374.759Z" fill="#129797"/>
<path d="M1081.95 404.485V383.145L1062.9 364.092L1033.18 393.813H1054.52L1062.91 385.422L1081.96 404.48L1081.95 404.485ZM1080.98 383.552V402.12L1062.9 384.041L1054.11 392.833H1035.55L1062.91 365.472L1080.98 383.547L1080.98 383.552Z" fill="#129797"/>
<path d="M988.063 374.759L998.039 364.787L1016.6 383.351V393.328V403.305L1006.62 393.328L998.039 384.736L989.449 393.328H969.497L988.063 374.759Z" fill="#129797"/>
<path d="M1017.09 404.485V383.145L998.039 364.092L968.318 393.813H989.654L998.044 385.422L1017.09 404.48L1017.09 404.485ZM1016.11 383.552V402.12L998.039 384.041L989.248 392.833H970.682L998.044 365.472L1016.12 383.547L1016.11 383.552Z" fill="#129797"/>
<path d="M923.199 374.759L933.174 364.787L951.735 383.351V393.328V403.305L941.76 393.328L933.174 384.736L924.584 393.328H904.633L923.199 374.759Z" fill="#129797"/>
<path d="M952.225 404.485V383.145L933.174 364.092L903.453 393.813H924.789L933.179 385.422L952.229 404.48L952.225 404.485ZM951.246 383.552V402.12L933.174 384.041L924.383 392.833H905.817L933.179 365.472L951.251 383.547L951.246 383.552Z" fill="#129797"/>
<path d="M858.334 374.759L868.31 364.787L886.871 383.351V393.328V403.305L876.895 393.328L868.31 384.736L859.72 393.328H839.768L858.334 374.759Z" fill="#129797"/>
<path d="M887.36 404.485V383.145L868.31 364.092L838.589 393.813H859.925L868.315 385.422L887.365 404.48L887.36 404.485ZM886.381 383.552V402.12L868.31 384.041L859.519 392.833H840.953L868.315 365.472L886.386 383.547L886.381 383.552Z" fill="#129797"/>
<path d="M793.469 374.759L803.445 364.787L822.006 383.351V393.328V403.305L812.03 393.328L803.445 384.736L794.854 393.328H774.903L793.469 374.759Z" fill="#129797"/>
<path d="M822.495 404.485V383.145L803.445 364.092L773.723 393.813H795.06L803.449 385.422L822.5 404.48L822.495 404.485ZM821.516 383.552V402.12L803.445 384.041L794.653 392.833H776.087L803.449 365.472L821.521 383.547L821.516 383.552Z" fill="#129797"/>
<path d="M728.604 374.759L738.58 364.787L757.141 383.351V393.328V403.305L747.165 393.328L738.58 384.736L729.989 393.328H710.038L728.604 374.759Z" fill="#129797"/>
<path d="M757.63 404.485V383.145L738.579 364.092L708.858 393.813H730.194L738.584 385.422L757.635 404.48L757.63 404.485ZM756.651 383.552V402.12L738.579 384.041L729.788 392.833H711.222L738.584 365.472L756.656 383.547L756.651 383.552Z" fill="#129797"/>
<path d="M663.739 374.759L673.715 364.787L692.276 383.351V393.328V403.305L682.3 393.328L673.715 384.736L665.124 393.328H645.173L663.739 374.759Z" fill="#129797"/>
<path d="M692.765 404.485V383.145L673.715 364.092L643.993 393.813H665.33L673.719 385.422L692.77 404.48L692.765 404.485ZM691.786 383.552V402.12L673.715 384.041L664.923 392.833H646.357L673.719 365.472L691.791 383.547L691.786 383.552Z" fill="#129797"/>
<path d="M598.874 374.759L608.85 364.787L627.411 383.351V393.328V403.305L617.436 393.328L608.85 384.736L600.26 393.328H580.308L598.874 374.759Z" fill="#129797"/>
<path d="M627.9 404.485V383.145L608.85 364.092L579.129 393.813H600.465L608.855 385.422L627.905 404.48L627.9 404.485ZM626.921 383.552V402.12L608.85 384.041L600.059 392.833H581.493L608.855 365.472L626.926 383.547L626.921 383.552Z" fill="#129797"/>
<path d="M534.009 374.759L543.985 364.787L562.546 383.351V393.328V403.305L552.57 393.328L543.985 384.736L535.394 393.328H515.443L534.009 374.759Z" fill="#129797"/>
<path d="M563.036 404.485V383.145L543.985 364.092L514.264 393.813H535.6L543.99 385.422L563.041 404.48L563.036 404.485ZM562.057 383.552V402.12L543.985 384.041L535.194 392.833H516.628L543.99 365.472L562.062 383.547L562.057 383.552Z" fill="#129797"/>
<path d="M469.144 374.759L479.12 364.787L497.681 383.351V393.328V403.305L487.706 393.328L479.12 384.736L470.53 393.328H450.578L469.144 374.759Z" fill="#129797"/>
<path d="M498.17 404.485V383.145L479.119 364.092L449.398 393.813H470.735L479.124 385.422L498.175 404.48L498.17 404.485ZM497.191 383.552V402.12L479.119 384.041L470.328 392.833H451.762L479.124 365.472L497.196 383.547L497.191 383.552Z" fill="#129797"/>
<path d="M404.28 374.759L414.255 364.787L432.816 383.351V393.328V403.305L422.841 393.328L414.255 384.736L405.665 393.328H385.714L404.28 374.759Z" fill="#129797"/>
<path d="M433.305 404.485V383.145L414.255 364.092L384.533 393.813H405.87L414.259 385.422L433.31 404.48L433.305 404.485ZM432.326 383.552V402.12L414.255 384.041L405.464 392.833H386.898L414.259 365.472L432.331 383.547L432.326 383.552Z" fill="#129797"/>
<path d="M339.414 374.759L349.39 364.787L367.951 383.351V393.328V403.305L357.976 393.328L349.39 384.736L340.8 393.328H320.848L339.414 374.759Z" fill="#129797"/>
<path d="M368.44 404.485V383.145L349.39 364.092L319.669 393.813H341.005L349.395 385.422L368.445 404.48L368.44 404.485ZM367.461 383.552V402.12L349.39 384.041L340.599 392.833H322.033L349.395 365.472L367.466 383.547L367.461 383.552Z" fill="#129797"/>
<path d="M274.55 374.759L284.525 364.787L303.086 383.351V393.328V403.305L293.111 393.328L284.525 384.736L275.935 393.328H255.984L274.55 374.759Z" fill="#129797"/>
<path d="M303.576 404.485V383.145L284.525 364.092L254.804 393.813H276.14L284.53 385.422L303.581 404.48L303.576 404.485ZM302.597 383.552V402.12L284.525 384.041L275.734 392.833H257.168L284.53 365.472L302.602 383.547L302.597 383.552Z" fill="#129797"/>
<path d="M209.685 374.759L219.661 364.787L238.222 383.351V393.328V403.305L228.246 393.328L219.661 384.736L211.07 393.328H191.119L209.685 374.759Z" fill="#129797"/>
<path d="M238.711 404.485V383.145L219.66 364.092L189.939 393.813H211.276L219.665 385.422L238.716 404.48L238.711 404.485ZM237.732 383.552V402.12L219.66 384.041L210.869 392.833H192.303L219.665 365.472L237.737 383.547L237.732 383.552Z" fill="#129797"/>
<path d="M144.82 374.759L154.795 364.787L173.356 383.351V393.328V403.305L163.381 393.328L154.795 384.736L146.205 393.328H126.254L144.82 374.759Z" fill="#129797"/>
<path d="M173.846 404.485V383.145L154.795 364.092L125.074 393.813H146.41L154.8 385.422L173.851 404.48L173.846 404.485ZM172.867 383.552V402.12L154.795 384.041L146.004 392.833H127.438L154.8 365.472L172.872 383.547L172.867 383.552Z" fill="#129797"/>
<path d="M79.956 374.759L89.9316 364.787L108.493 383.351V393.328V403.305L98.5171 393.328L89.9316 384.736L81.3412 393.328H61.39L79.956 374.759Z" fill="#129797"/>
<path d="M108.981 404.485V383.145L89.9309 364.092L60.2096 393.813H81.546L89.9357 385.422L108.986 404.48L108.981 404.485ZM108.002 383.552V402.12L89.9309 384.041L81.1398 392.833H62.5738L89.9357 365.472L108.007 383.547L108.002 383.552Z" fill="#129797"/>
<path d="M15.0902 374.759L25.0659 364.787L43.627 383.351V393.328V403.305L33.6513 393.328L25.0659 384.736L16.4755 393.328H-3.47577L15.0902 374.759Z" fill="#129797"/>
<path d="M44.1162 404.485V383.145L25.0656 364.092L-4.65564 393.813H16.6808L25.0705 385.422L44.1211 404.48L44.1162 404.485ZM43.1372 383.552V402.12L25.0656 384.041L16.2745 392.833H-2.29145L25.0705 365.472L43.1421 383.547L43.1372 383.552Z" fill="#129797"/>
<path d="M24.3746 424.805L14.399 414.833L-4.16211 433.397V443.374V453.351L5.81351 443.374L14.399 434.782L22.9894 443.374H42.9406L24.3746 424.805Z" fill="#129797"/>
<path d="M-4.65136 454.531V433.191L14.3992 414.138L44.1205 443.858H22.784L14.3943 435.468L-4.65625 454.526L-4.65136 454.531ZM-3.6724 433.597V452.166L14.3992 434.087L23.1903 442.879H41.7563L14.3943 415.518L-3.67729 433.593L-3.6724 433.597Z" fill="#129797"/>
<path d="M89.2398 424.805L79.2642 414.833L60.7031 433.397V443.374V453.351L70.6787 443.374L79.2642 434.782L87.8546 443.374H107.806L89.2398 424.805Z" fill="#129797"/>
<path d="M60.2139 454.531V433.191L79.2645 414.138L108.986 443.858H87.6493L79.2596 435.468L60.209 454.526L60.2139 454.531ZM61.1928 433.597V452.166L79.2645 434.087L88.0555 442.879H106.622L79.2596 415.518L61.1879 433.593L61.1928 433.597Z" fill="#129797"/>
<path d="M154.105 424.805L144.129 414.833L125.568 433.397V443.374V453.351L135.543 443.374L144.129 434.782L152.719 443.374H172.671L154.105 424.805Z" fill="#129797"/>
<path d="M125.079 454.531V433.191L144.129 414.138L173.85 443.858H152.514L144.124 435.468L125.074 454.526L125.079 454.531ZM126.058 433.597V452.166L144.129 434.087L152.92 442.879H171.486L144.124 415.518L126.053 433.593L126.058 433.597Z" fill="#129797"/>
<path d="M218.969 424.805L208.994 414.833L190.433 433.397V443.374V453.351L200.408 443.374L208.994 434.782L217.584 443.374H237.535L218.969 424.805Z" fill="#129797"/>
<path d="M189.943 454.531V433.191L208.994 414.138L238.715 443.858H217.379L208.989 435.468L189.938 454.526L189.943 454.531ZM190.922 433.597V452.166L208.994 434.087L217.785 442.879H236.351L208.989 415.518L190.917 433.593L190.922 433.597Z" fill="#129797"/>
<path d="M283.835 424.805L273.859 414.833L255.298 433.397V443.374V453.351L265.273 443.374L273.859 434.782L282.449 443.374H302.401L283.835 424.805Z" fill="#129797"/>
<path d="M254.809 454.531V433.191L273.859 414.138L303.58 443.858H282.244L273.854 435.468L254.804 454.526L254.809 454.531ZM255.788 433.597V452.166L273.859 434.087L282.65 442.879H301.216L273.854 415.518L255.783 433.593L255.788 433.597Z" fill="#129797"/>
<path d="M348.7 424.805L338.724 414.833L320.163 433.397V443.374V453.351L330.139 443.374L338.724 434.782L347.315 443.374H367.266L348.7 424.805Z" fill="#129797"/>
<path d="M319.673 454.531V433.191L338.724 414.138L368.445 443.858H347.109L338.719 435.468L319.668 454.526L319.673 454.531ZM320.652 433.597V452.166L338.724 434.087L347.515 442.879H366.081L338.719 415.518L320.647 433.593L320.652 433.597Z" fill="#129797"/>
<path d="M413.564 424.805L403.588 414.833L385.027 433.397V443.374V453.351L395.003 443.374L403.588 434.782L412.179 443.374H432.13L413.564 424.805Z" fill="#129797"/>
<path d="M384.539 454.531V433.191L403.589 414.138L433.31 443.858H411.974L403.584 435.468L384.534 454.526L384.539 454.531ZM385.518 433.597V452.166L403.589 434.087L412.38 442.879H430.946L403.584 415.518L385.513 433.593L385.518 433.597Z" fill="#129797"/>
<path d="M478.429 424.805L468.454 414.833L449.893 433.397V443.374V453.351L459.868 443.374L468.454 434.782L477.044 443.374H496.995L478.429 424.805Z" fill="#129797"/>
<path d="M449.403 454.531V433.191L468.454 414.138L498.175 443.858H476.839L468.449 435.468L449.398 454.526L449.403 454.531ZM450.382 433.597V452.166L468.454 434.087L477.245 442.879H495.811L468.449 415.518L450.377 433.593L450.382 433.597Z" fill="#129797"/>
<path d="M543.295 424.805L533.319 414.833L514.758 433.397V443.374V453.351L524.733 443.374L533.319 434.782L541.909 443.374H561.861L543.295 424.805Z" fill="#129797"/>
<path d="M514.268 454.531V433.191L533.319 414.138L563.04 443.858H541.703L533.314 435.468L514.263 454.526L514.268 454.531ZM515.247 433.597V452.166L533.319 434.087L542.11 442.879H560.676L533.314 415.518L515.242 433.593L515.247 433.597Z" fill="#129797"/>
<path d="M608.159 424.805L598.184 414.833L579.623 433.397V443.374V453.351L589.598 443.374L598.184 434.782L606.774 443.374H626.725L608.159 424.805Z" fill="#129797"/>
<path d="M579.133 454.531V433.191L598.184 414.138L627.905 443.858H606.569L598.179 435.468L579.128 454.526L579.133 454.531ZM580.112 433.597V452.166L598.184 434.087L606.975 442.879H625.541L598.179 415.518L580.107 433.593L580.112 433.597Z" fill="#129797"/>
<path d="M673.024 424.805L663.048 414.833L644.487 433.397V443.374V453.351L654.463 443.374L663.048 434.782L671.639 443.374H691.59L673.024 424.805Z" fill="#129797"/>
<path d="M643.998 454.531V433.191L663.049 414.138L692.77 443.858H671.433L663.044 435.468L643.993 454.526L643.998 454.531ZM644.977 433.597V452.166L663.049 434.087L671.84 442.879H690.406L663.044 415.518L644.972 433.593L644.977 433.597Z" fill="#129797"/>
<path d="M737.889 424.805L727.914 414.833L709.353 433.397V443.374V453.351L719.328 443.374L727.914 434.782L736.504 443.374H756.455L737.889 424.805Z" fill="#129797"/>
<path d="M708.863 454.531V433.191L727.914 414.138L757.635 443.858H736.299L727.909 435.468L708.858 454.526L708.863 454.531ZM709.842 433.597V452.166L727.914 434.087L736.705 442.879H755.271L727.909 415.518L709.837 433.593L709.842 433.597Z" fill="#129797"/>
<path d="M802.754 424.805L792.778 414.833L774.217 433.397V443.374V453.351L784.193 443.374L792.778 434.782L801.369 443.374H821.32L802.754 424.805Z" fill="#129797"/>
<path d="M773.728 454.531V433.191L792.779 414.138L822.5 443.858H801.163L792.774 435.468L773.723 454.526L773.728 454.531ZM774.707 433.597V452.166L792.779 434.087L801.57 442.879H820.136L792.774 415.518L774.702 433.593L774.707 433.597Z" fill="#129797"/>
<path d="M867.619 424.805L857.643 414.833L839.082 433.397V443.374V453.351L849.058 443.374L857.643 434.782L866.234 443.374H886.185L867.619 424.805Z" fill="#129797"/>
<path d="M838.593 454.531V433.191L857.643 414.138L887.365 443.858H866.028L857.638 435.468L838.588 454.526L838.593 454.531ZM839.572 433.597V452.166L857.643 434.087L866.434 442.879H885L857.638 415.518L839.567 433.593L839.572 433.597Z" fill="#129797"/>
<path d="M932.484 424.805L922.508 414.833L903.947 433.397V443.374V453.351L913.923 443.374L922.508 434.782L931.099 443.374H951.05L932.484 424.805Z" fill="#129797"/>
<path d="M903.458 454.531V433.191L922.509 414.138L952.23 443.858H930.893L922.504 435.468L903.453 454.526L903.458 454.531ZM904.437 433.597V452.166L922.509 434.087L931.3 442.879H949.866L922.504 415.518L904.432 433.593L904.437 433.597Z" fill="#129797"/>
<path d="M997.348 424.805L987.373 414.833L968.812 433.397V443.374V453.351L978.787 443.374L987.373 434.782L995.963 443.374H1015.91L997.348 424.805Z" fill="#129797"/>
<path d="M968.322 454.531V433.191L987.373 414.138L1017.09 443.858H995.758L987.368 435.468L968.317 454.526L968.322 454.531ZM969.301 433.597V452.166L987.373 434.087L996.164 442.879H1014.73L987.368 415.518L969.296 433.593L969.301 433.597Z" fill="#129797"/>
<path d="M1062.21 424.805L1052.24 414.833L1033.68 433.397V443.374V453.351L1043.65 443.374L1052.24 434.782L1060.83 443.374H1080.78L1062.21 424.805Z" fill="#129797"/>
<path d="M1033.19 454.531V433.191L1052.24 414.138L1081.96 443.858H1060.62L1052.23 435.468L1033.18 454.526L1033.19 454.531ZM1034.17 433.597V452.166L1052.24 434.087L1061.03 442.879H1079.6L1052.23 415.518L1034.16 433.593L1034.17 433.597Z" fill="#129797"/>
<path d="M1127.08 424.805L1117.1 414.833L1098.54 433.397V443.374V453.351L1108.52 443.374L1117.1 434.782L1125.69 443.374H1145.64L1127.08 424.805Z" fill="#129797"/>
<path d="M1098.05 454.531V433.191L1117.1 414.138L1146.82 443.858H1125.49L1117.1 435.468L1098.05 454.526L1098.05 454.531ZM1099.03 433.597V452.166L1117.1 434.087L1125.89 442.879H1144.46L1117.1 415.518L1099.03 433.593L1099.03 433.597Z" fill="#129797"/>
<path d="M1191.94 424.805L1181.97 414.833L1163.41 433.397V443.374V453.351L1173.38 443.374L1181.97 434.782L1190.56 443.374H1210.51L1191.94 424.805Z" fill="#129797"/>
<path d="M1162.92 454.531V433.191L1181.97 414.138L1211.69 443.858H1190.35L1181.96 435.468L1162.91 454.526L1162.92 454.531ZM1163.9 433.597V452.166L1181.97 434.087L1190.76 442.879H1209.33L1181.96 415.518L1163.89 433.593L1163.9 433.597Z" fill="#129797"/>
<path d="M1256.81 424.805L1246.83 414.833L1228.27 433.397V443.374V453.351L1238.25 443.374L1246.83 434.782L1255.42 443.374H1275.37L1256.81 424.805Z" fill="#129797"/>
<path d="M1227.78 454.531V433.191L1246.83 414.138L1276.55 443.858H1255.22L1246.83 435.468L1227.78 454.526L1227.78 454.531ZM1228.76 433.597V452.166L1246.83 434.087L1255.62 442.879H1274.19L1246.83 415.518L1228.76 433.593L1228.76 433.597Z" fill="#129797"/>
<path d="M1321.67 424.805L1311.7 414.833L1293.14 433.397V443.374V453.351L1303.11 443.374L1311.7 434.782L1320.29 443.374H1340.24L1321.67 424.805Z" fill="#129797"/>
<path d="M1292.65 454.531V433.191L1311.7 414.138L1341.42 443.858H1320.08L1311.69 435.468L1292.64 454.526L1292.65 454.531ZM1293.63 433.597V452.166L1311.7 434.087L1320.49 442.879H1339.05L1311.69 415.518L1293.62 433.593L1293.63 433.597Z" fill="#129797"/>
<path d="M1386.54 424.805L1376.56 414.833L1358 433.397V443.374V453.351L1367.98 443.374L1376.56 434.782L1385.15 443.374H1405.1L1386.54 424.805Z" fill="#129797"/>
<path d="M1357.51 454.531V433.191L1376.56 414.138L1406.28 443.858H1384.95L1376.56 435.468L1357.51 454.526L1357.51 454.531ZM1358.49 433.597V452.166L1376.56 434.087L1385.35 442.879H1403.92L1376.56 415.518L1358.49 433.593L1358.49 433.597Z" fill="#129797"/>
<path d="M1451.4 424.805L1441.43 414.833L1422.87 433.397V443.374V453.351L1432.84 443.374L1441.43 434.782L1450.02 443.374H1469.97L1451.4 424.805Z" fill="#129797"/>
<path d="M1422.38 454.531V433.191L1441.43 414.138L1471.15 443.858H1449.81L1441.42 435.468L1422.37 454.526L1422.38 454.531ZM1423.36 433.597V452.166L1441.43 434.087L1450.22 442.879H1468.78L1441.42 415.518L1423.35 433.593L1423.36 433.597Z" fill="#129797"/>
<path d="M1516.27 424.805L1506.29 414.833L1487.73 433.397V443.374V453.351L1497.71 443.374L1506.29 434.782L1514.88 443.374H1534.83L1516.27 424.805Z" fill="#129797"/>
<path d="M1487.24 454.531V433.191L1506.29 414.138L1536.01 443.858H1514.68L1506.29 435.468L1487.24 454.526L1487.24 454.531ZM1488.22 433.597V452.166L1506.29 434.087L1515.08 442.879H1533.65L1506.29 415.518L1488.22 433.593L1488.22 433.597Z" fill="#129797"/>
<path d="M1581.13 424.805L1571.16 414.833L1552.6 433.397V443.374V453.351L1562.57 443.374L1571.16 434.782L1579.75 443.374H1599.7L1581.13 424.805Z" fill="#129797"/>
<path d="M1552.11 454.531V433.191L1571.16 414.138L1600.88 443.858H1579.54L1571.15 435.468L1552.1 454.526L1552.11 454.531ZM1553.09 433.597V452.166L1571.16 434.087L1579.95 442.879H1598.51L1571.15 415.518L1553.08 433.593L1553.09 433.597Z" fill="#129797"/>
<path d="M1646 424.805L1636.02 414.833L1617.46 433.397V443.374V453.351L1627.44 443.374L1636.02 434.782L1644.61 443.374H1664.56L1646 424.805Z" fill="#129797"/>
<path d="M1616.97 454.531V433.191L1636.02 414.138L1665.74 443.858H1644.41L1636.02 435.468L1616.97 454.526L1616.97 454.531ZM1617.95 433.597V452.166L1636.02 434.087L1644.81 442.879H1663.38L1636.02 415.518L1617.95 433.593L1617.95 433.597Z" fill="#129797"/>
<path d="M1710.86 424.805L1700.89 414.833L1682.33 433.397V443.374V453.351L1692.3 443.374L1700.89 434.782L1709.48 443.374H1729.43L1710.86 424.805Z" fill="#129797"/>
<path d="M1681.84 454.531V433.191L1700.89 414.138L1730.61 443.858H1709.27L1700.88 435.468L1681.83 454.526L1681.84 454.531ZM1682.82 433.597V452.166L1700.89 434.087L1709.68 442.879H1728.24L1700.88 415.518L1682.81 433.593L1682.82 433.597Z" fill="#129797"/>
<path d="M1775.73 424.805L1765.75 414.833L1747.19 433.397V443.374V453.351L1757.17 443.374L1765.75 434.782L1774.34 443.374H1794.29L1775.73 424.805Z" fill="#129797"/>
<path d="M1746.7 454.531V433.191L1765.75 414.138L1795.47 443.858H1774.14L1765.75 435.468L1746.7 454.526L1746.7 454.531ZM1747.68 433.597V452.166L1765.75 434.087L1774.54 442.879H1793.11L1765.75 415.518L1747.68 433.593L1747.68 433.597Z" fill="#129797"/>
<path d="M1840.59 424.805L1830.62 414.833L1812.05 433.397V443.374V453.351L1822.03 443.374L1830.62 434.782L1839.21 443.374H1859.16L1840.59 424.805Z" fill="#129797"/>
<path d="M1811.57 454.531V433.191L1830.62 414.138L1860.34 443.858H1839L1830.61 435.468L1811.56 454.526L1811.57 454.531ZM1812.54 433.597V452.166L1830.62 434.087L1839.41 442.879H1857.97L1830.61 415.518L1812.54 433.593L1812.54 433.597Z" fill="#129797"/>
<path d="M1905.46 424.805L1895.48 414.833L1876.92 433.397V443.374V453.351L1886.9 443.374L1895.48 434.782L1904.07 443.374H1924.02L1905.46 424.805Z" fill="#129797"/>
<path d="M1876.43 454.531V433.191L1895.48 414.138L1925.2 443.858H1903.87L1895.48 435.468L1876.43 454.526L1876.43 454.531ZM1877.41 433.597V452.166L1895.48 434.087L1904.27 442.879H1922.84L1895.48 415.518L1877.4 433.593L1877.41 433.597Z" fill="#129797"/>
<path d="M1896.17 474.852L1906.15 464.879L1924.71 483.443V493.42V503.397L1914.73 493.42L1906.15 484.829L1897.56 493.42H1877.61L1896.17 474.852Z" fill="#129797"/>
<path d="M1925.2 504.577V483.238L1906.15 464.184L1876.43 493.905H1897.76L1906.15 485.514L1925.2 504.572L1925.2 504.577ZM1924.22 483.644V502.213L1906.15 484.133L1897.36 492.926H1878.79L1906.15 465.565L1924.22 483.639L1924.22 483.644Z" fill="#129797"/>
<path d="M1831.31 474.852L1841.28 464.879L1859.84 483.443V493.42V503.397L1849.87 493.42L1841.28 484.829L1832.69 493.42H1812.74L1831.31 474.852Z" fill="#129797"/>
<path d="M1860.33 504.577V483.238L1841.28 464.184L1811.56 493.905H1832.9L1841.29 485.514L1860.34 504.572L1860.33 504.577ZM1859.35 483.644V502.213L1841.28 484.133L1832.49 492.926H1813.93L1841.29 465.565L1859.36 483.639L1859.35 483.644Z" fill="#129797"/>
<path d="M1766.44 474.852L1776.42 464.879L1794.98 483.443V493.42V503.397L1785 493.42L1776.42 484.829L1767.83 493.42H1747.88L1766.44 474.852Z" fill="#129797"/>
<path d="M1795.47 504.577V483.238L1776.42 464.184L1746.7 493.905H1768.03L1776.42 485.514L1795.47 504.572L1795.47 504.577ZM1794.49 483.644V502.213L1776.42 484.133L1767.63 492.926H1749.06L1776.42 465.565L1794.49 483.639L1794.49 483.644Z" fill="#129797"/>
<path d="M1701.58 474.852L1711.55 464.879L1730.11 483.443V493.42V503.397L1720.14 493.42L1711.55 484.829L1702.96 493.42H1683.01L1701.58 474.852Z" fill="#129797"/>
<path d="M1730.6 504.577V483.238L1711.55 464.184L1681.83 493.905H1703.17L1711.56 485.514L1730.61 504.572L1730.6 504.577ZM1729.63 483.644V502.213L1711.55 484.133L1702.76 492.926H1684.2L1711.56 465.565L1729.63 483.639L1729.63 483.644Z" fill="#129797"/>
<path d="M1636.71 474.852L1646.69 464.879L1665.25 483.443V493.42V503.397L1655.27 493.42L1646.69 484.829L1638.1 493.42H1618.15L1636.71 474.852Z" fill="#129797"/>
<path d="M1665.74 504.577V483.238L1646.69 464.184L1616.97 493.905H1638.3L1646.69 485.514L1665.74 504.572L1665.74 504.577ZM1664.76 483.644V502.213L1646.69 484.133L1637.9 492.926H1619.33L1646.69 465.565L1664.76 483.639L1664.76 483.644Z" fill="#129797"/>
<path d="M1571.85 474.852L1581.82 464.879L1600.38 483.443V493.42V503.397L1590.41 493.42L1581.82 484.829L1573.23 493.42H1553.28L1571.85 474.852Z" fill="#129797"/>
<path d="M1600.87 504.577V483.238L1581.82 464.184L1552.1 493.905H1573.44L1581.83 485.514L1600.88 504.572L1600.87 504.577ZM1599.9 483.644V502.213L1581.82 484.133L1573.03 492.926H1554.47L1581.83 465.565L1599.9 483.639L1599.9 483.644Z" fill="#129797"/>
<path d="M1506.98 474.852L1516.96 464.879L1535.52 483.443V493.42V503.397L1525.54 493.42L1516.96 484.829L1508.37 493.42H1488.42L1506.98 474.852Z" fill="#129797"/>
<path d="M1536.01 504.577V483.238L1516.96 464.184L1487.24 493.905H1508.57L1516.96 485.514L1536.01 504.572L1536.01 504.577ZM1535.03 483.644V502.213L1516.96 484.133L1508.17 492.926H1489.6L1516.96 465.565L1535.03 483.639L1535.03 483.644Z" fill="#129797"/>
<path d="M1442.12 474.852L1452.09 464.879L1470.65 483.443V493.42V503.397L1460.68 493.42L1452.09 484.829L1443.5 493.42H1423.55L1442.12 474.852Z" fill="#129797"/>
<path d="M1471.14 504.577V483.238L1452.09 464.184L1422.37 493.905H1443.71L1452.1 485.514L1471.15 504.572L1471.14 504.577ZM1470.17 483.644V502.213L1452.09 484.133L1443.3 492.926H1424.74L1452.1 465.565L1470.17 483.639L1470.17 483.644Z" fill="#129797"/>
<path d="M1377.25 474.852L1387.23 464.879L1405.79 483.443V493.42V503.397L1395.81 493.42L1387.23 484.829L1378.64 493.42H1358.69L1377.25 474.852Z" fill="#129797"/>
<path d="M1406.28 504.577V483.238L1387.23 464.184L1357.51 493.905H1378.84L1387.23 485.514L1406.28 504.572L1406.28 504.577ZM1405.3 483.644V502.213L1387.23 484.133L1378.44 492.926H1359.87L1387.23 465.565L1405.31 483.639L1405.3 483.644Z" fill="#129797"/>
<path d="M1312.39 474.852L1322.36 464.879L1340.92 483.443V493.42V503.397L1330.95 493.42L1322.36 484.829L1313.77 493.42H1293.82L1312.39 474.852Z" fill="#129797"/>
<path d="M1341.41 504.577V483.238L1322.36 464.184L1292.64 493.905H1313.98L1322.37 485.514L1341.42 504.572L1341.41 504.577ZM1340.44 483.644V502.213L1322.36 484.133L1313.57 492.926H1295.01L1322.37 465.565L1340.44 483.639L1340.44 483.644Z" fill="#129797"/>
<path d="M1247.52 474.852L1257.5 464.879L1276.06 483.443V493.42V503.397L1266.08 493.42L1257.5 484.829L1248.91 493.42H1228.96L1247.52 474.852Z" fill="#129797"/>
<path d="M1276.55 504.577V483.238L1257.5 464.184L1227.78 493.905H1249.11L1257.5 485.514L1276.55 504.572L1276.55 504.577ZM1275.57 483.644V502.213L1257.5 484.133L1248.71 492.926H1230.14L1257.5 465.565L1275.58 483.639L1275.57 483.644Z" fill="#129797"/>
<path d="M1182.66 474.852L1192.63 464.879L1211.2 483.443V493.42V503.397L1201.22 493.42L1192.63 484.829L1184.04 493.42H1164.09L1182.66 474.852Z" fill="#129797"/>
<path d="M1211.68 504.577V483.238L1192.63 464.184L1162.91 493.905H1184.25L1192.64 485.514L1211.69 504.572L1211.68 504.577ZM1210.71 483.644V502.213L1192.63 484.133L1183.84 492.926H1165.28L1192.64 465.565L1210.71 483.639L1210.71 483.644Z" fill="#129797"/>
<path d="M1117.79 474.852L1127.77 464.879L1146.33 483.443V493.42V503.397L1136.35 493.42L1127.77 484.829L1119.18 493.42H1099.23L1117.79 474.852Z" fill="#129797"/>
<path d="M1146.82 504.577V483.238L1127.77 464.184L1098.05 493.905H1119.38L1127.77 485.514L1146.82 504.572L1146.82 504.577ZM1145.84 483.644V502.213L1127.77 484.133L1118.98 492.926H1100.41L1127.77 465.565L1145.85 483.639L1145.84 483.644Z" fill="#129797"/>
<path d="M1052.93 474.852L1062.9 464.879L1081.47 483.443V493.42V503.397L1071.49 493.42L1062.9 484.829L1054.31 493.42H1034.36L1052.93 474.852Z" fill="#129797"/>
<path d="M1081.95 504.577V483.238L1062.9 464.184L1033.18 493.905H1054.52L1062.91 485.514L1081.96 504.572L1081.95 504.577ZM1080.98 483.644V502.213L1062.9 484.133L1054.11 492.926H1035.55L1062.91 465.565L1080.98 483.639L1080.98 483.644Z" fill="#129797"/>
<path d="M988.063 474.852L998.039 464.879L1016.6 483.443V493.42V503.397L1006.62 493.42L998.039 484.829L989.449 493.42H969.497L988.063 474.852Z" fill="#129797"/>
<path d="M1017.09 504.577V483.238L998.039 464.184L968.318 493.905H989.654L998.044 485.514L1017.09 504.572L1017.09 504.577ZM1016.11 483.644V502.213L998.039 484.133L989.248 492.926H970.682L998.044 465.565L1016.12 483.639L1016.11 483.644Z" fill="#129797"/>
<path d="M923.199 474.852L933.174 464.879L951.735 483.443V493.42V503.397L941.76 493.42L933.174 484.829L924.584 493.42H904.633L923.199 474.852Z" fill="#129797"/>
<path d="M952.225 504.577V483.238L933.174 464.184L903.453 493.905H924.789L933.179 485.514L952.229 504.572L952.225 504.577ZM951.246 483.644V502.213L933.174 484.133L924.383 492.926H905.817L933.179 465.565L951.251 483.639L951.246 483.644Z" fill="#129797"/>
<path d="M858.334 474.852L868.31 464.879L886.871 483.443V493.42V503.397L876.895 493.42L868.31 484.829L859.72 493.42H839.768L858.334 474.852Z" fill="#129797"/>
<path d="M887.36 504.577V483.238L868.31 464.184L838.589 493.905H859.925L868.315 485.514L887.365 504.572L887.36 504.577ZM886.381 483.644V502.213L868.31 484.133L859.519 492.926H840.953L868.315 465.565L886.386 483.639L886.381 483.644Z" fill="#129797"/>
<path d="M793.469 474.852L803.445 464.879L822.006 483.443V493.42V503.397L812.03 493.42L803.445 484.829L794.854 493.42H774.903L793.469 474.852Z" fill="#129797"/>
<path d="M822.495 504.577V483.238L803.445 464.184L773.723 493.905H795.06L803.449 485.514L822.5 504.572L822.495 504.577ZM821.516 483.644V502.213L803.445 484.133L794.653 492.926H776.087L803.449 465.565L821.521 483.639L821.516 483.644Z" fill="#129797"/>
<path d="M728.604 474.852L738.58 464.879L757.141 483.443V493.42V503.397L747.165 493.42L738.58 484.829L729.989 493.42H710.038L728.604 474.852Z" fill="#129797"/>
<path d="M757.63 504.577V483.238L738.579 464.184L708.858 493.905H730.194L738.584 485.514L757.635 504.572L757.63 504.577ZM756.651 483.644V502.213L738.579 484.133L729.788 492.926H711.222L738.584 465.565L756.656 483.639L756.651 483.644Z" fill="#129797"/>
<path d="M663.739 474.852L673.715 464.879L692.276 483.443V493.42V503.397L682.3 493.42L673.715 484.829L665.124 493.42H645.173L663.739 474.852Z" fill="#129797"/>
<path d="M692.765 504.577V483.238L673.715 464.184L643.993 493.905H665.33L673.719 485.514L692.77 504.572L692.765 504.577ZM691.786 483.644V502.213L673.715 484.133L664.923 492.926H646.357L673.719 465.565L691.791 483.639L691.786 483.644Z" fill="#129797"/>
<path d="M598.874 474.852L608.85 464.879L627.411 483.443V493.42V503.397L617.436 493.42L608.85 484.829L600.26 493.42H580.308L598.874 474.852Z" fill="#129797"/>
<path d="M627.9 504.577V483.238L608.85 464.184L579.129 493.905H600.465L608.855 485.514L627.905 504.572L627.9 504.577ZM626.921 483.644V502.213L608.85 484.133L600.059 492.926H581.493L608.855 465.565L626.926 483.639L626.921 483.644Z" fill="#129797"/>
<path d="M534.009 474.852L543.985 464.879L562.546 483.443V493.42V503.397L552.57 493.42L543.985 484.829L535.394 493.42H515.443L534.009 474.852Z" fill="#129797"/>
<path d="M563.036 504.577V483.238L543.985 464.184L514.264 493.905H535.6L543.99 485.514L563.041 504.572L563.036 504.577ZM562.057 483.644V502.213L543.985 484.133L535.194 492.926H516.628L543.99 465.565L562.062 483.639L562.057 483.644Z" fill="#129797"/>
<path d="M469.144 474.852L479.12 464.879L497.681 483.443V493.42V503.397L487.706 493.42L479.12 484.829L470.53 493.42H450.578L469.144 474.852Z" fill="#129797"/>
<path d="M498.17 504.577V483.238L479.119 464.184L449.398 493.905H470.735L479.124 485.514L498.175 504.572L498.17 504.577ZM497.191 483.644V502.213L479.119 484.133L470.328 492.926H451.762L479.124 465.565L497.196 483.639L497.191 483.644Z" fill="#129797"/>
<path d="M404.28 474.852L414.255 464.879L432.816 483.443V493.42V503.397L422.841 493.42L414.255 484.829L405.665 493.42H385.714L404.28 474.852Z" fill="#129797"/>
<path d="M433.305 504.577V483.238L414.255 464.184L384.533 493.905H405.87L414.259 485.514L433.31 504.572L433.305 504.577ZM432.326 483.644V502.213L414.255 484.133L405.464 492.926H386.898L414.259 465.565L432.331 483.639L432.326 483.644Z" fill="#129797"/>
<path d="M339.414 474.852L349.39 464.879L367.951 483.443V493.42V503.397L357.976 493.42L349.39 484.829L340.8 493.42H320.848L339.414 474.852Z" fill="#129797"/>
<path d="M368.44 504.577V483.238L349.39 464.184L319.669 493.905H341.005L349.395 485.514L368.445 504.572L368.44 504.577ZM367.461 483.644V502.213L349.39 484.133L340.599 492.926H322.033L349.395 465.565L367.466 483.639L367.461 483.644Z" fill="#129797"/>
<path d="M274.55 474.852L284.525 464.879L303.086 483.443V493.42V503.397L293.111 493.42L284.525 484.829L275.935 493.42H255.984L274.55 474.852Z" fill="#129797"/>
<path d="M303.576 504.577V483.238L284.525 464.184L254.804 493.905H276.14L284.53 485.514L303.581 504.572L303.576 504.577ZM302.597 483.644V502.213L284.525 484.133L275.734 492.926H257.168L284.53 465.565L302.602 483.639L302.597 483.644Z" fill="#129797"/>
<path d="M209.685 474.852L219.661 464.879L238.222 483.443V493.42V503.397L228.246 493.42L219.661 484.829L211.07 493.42H191.119L209.685 474.852Z" fill="#129797"/>
<path d="M238.711 504.577V483.238L219.66 464.184L189.939 493.905H211.276L219.665 485.514L238.716 504.572L238.711 504.577ZM237.732 483.644V502.213L219.66 484.133L210.869 492.926H192.303L219.665 465.565L237.737 483.639L237.732 483.644Z" fill="#129797"/>
<path d="M144.82 474.852L154.795 464.879L173.356 483.443V493.42V503.397L163.381 493.42L154.795 484.829L146.205 493.42H126.254L144.82 474.852Z" fill="#129797"/>
<path d="M173.846 504.577V483.238L154.795 464.184L125.074 493.905H146.41L154.8 485.514L173.851 504.572L173.846 504.577ZM172.867 483.644V502.213L154.795 484.133L146.004 492.926H127.438L154.8 465.565L172.872 483.639L172.867 483.644Z" fill="#129797"/>
<path d="M79.956 474.852L89.9316 464.879L108.493 483.443V493.42V503.397L98.5171 493.42L89.9316 484.829L81.3412 493.42H61.39L79.956 474.852Z" fill="#129797"/>
<path d="M108.981 504.577V483.238L89.9309 464.184L60.2096 493.905H81.546L89.9357 485.514L108.986 504.572L108.981 504.577ZM108.002 483.644V502.213L89.9309 484.133L81.1398 492.926H62.5738L89.9357 465.565L108.007 483.639L108.002 483.644Z" fill="#129797"/>
<path d="M15.0902 474.852L25.0659 464.879L43.627 483.443V493.42V503.397L33.6513 493.42L25.0659 484.829L16.4755 493.42H-3.47577L15.0902 474.852Z" fill="#129797"/>
<path d="M44.1162 504.577V483.238L25.0656 464.184L-4.65564 493.905H16.6808L25.0705 485.514L44.1211 504.572L44.1162 504.577ZM43.1372 483.644V502.213L25.0656 484.133L16.2745 492.926H-2.29145L25.0705 465.565L43.1421 483.639L43.1372 483.644Z" fill="#129797"/>
<path d="M24.3746 524.898L14.399 514.925L-4.16211 533.489V543.466V553.443L5.81351 543.466L14.399 534.875L22.9894 543.466H42.9406L24.3746 524.898Z" fill="#129797"/>
<path d="M-4.65136 554.623V533.283L14.3992 514.23L44.1205 543.951H22.784L14.3943 535.56L-4.65625 554.618L-4.65136 554.623ZM-3.6724 533.69V552.259L14.3992 534.179L23.1903 542.972H41.7563L14.3943 515.611L-3.67729 533.685L-3.6724 533.69Z" fill="#129797"/>
<path d="M89.2398 524.898L79.2642 514.925L60.7031 533.489V543.466V553.443L70.6787 543.466L79.2642 534.875L87.8546 543.466H107.806L89.2398 524.898Z" fill="#129797"/>
<path d="M60.2139 554.623V533.283L79.2645 514.23L108.986 543.951H87.6493L79.2596 535.56L60.209 554.618L60.2139 554.623ZM61.1928 533.69V552.259L79.2645 534.179L88.0555 542.972H106.622L79.2596 515.611L61.1879 533.685L61.1928 533.69Z" fill="#129797"/>
<path d="M154.105 524.898L144.129 514.925L125.568 533.489V543.466V553.443L135.543 543.466L144.129 534.875L152.719 543.466H172.671L154.105 524.898Z" fill="#129797"/>
<path d="M125.079 554.623V533.283L144.129 514.23L173.85 543.951H152.514L144.124 535.56L125.074 554.618L125.079 554.623ZM126.058 533.69V552.259L144.129 534.179L152.92 542.972H171.486L144.124 515.611L126.053 533.685L126.058 533.69Z" fill="#129797"/>
<path d="M218.969 524.898L208.994 514.925L190.433 533.489V543.466V553.443L200.408 543.466L208.994 534.875L217.584 543.466H237.535L218.969 524.898Z" fill="#129797"/>
<path d="M189.943 554.623V533.283L208.994 514.23L238.715 543.951H217.379L208.989 535.56L189.938 554.618L189.943 554.623ZM190.922 533.69V552.259L208.994 534.179L217.785 542.972H236.351L208.989 515.611L190.917 533.685L190.922 533.69Z" fill="#129797"/>
<path d="M283.835 524.898L273.859 514.925L255.298 533.489V543.466V553.443L265.273 543.466L273.859 534.875L282.449 543.466H302.401L283.835 524.898Z" fill="#129797"/>
<path d="M254.809 554.623V533.283L273.859 514.23L303.58 543.951H282.244L273.854 535.56L254.804 554.618L254.809 554.623ZM255.788 533.69V552.259L273.859 534.179L282.65 542.972H301.216L273.854 515.611L255.783 533.685L255.788 533.69Z" fill="#129797"/>
<path d="M348.7 524.898L338.724 514.925L320.163 533.489V543.466V553.443L330.139 543.466L338.724 534.875L347.315 543.466H367.266L348.7 524.898Z" fill="#129797"/>
<path d="M319.673 554.623V533.283L338.724 514.23L368.445 543.951H347.109L338.719 535.56L319.668 554.618L319.673 554.623ZM320.652 533.69V552.259L338.724 534.179L347.515 542.972H366.081L338.719 515.611L320.647 533.685L320.652 533.69Z" fill="#129797"/>
<path d="M413.564 524.898L403.588 514.925L385.027 533.489V543.466V553.443L395.003 543.466L403.588 534.875L412.179 543.466H432.13L413.564 524.898Z" fill="#129797"/>
<path d="M384.539 554.623V533.283L403.589 514.23L433.31 543.951H411.974L403.584 535.56L384.534 554.618L384.539 554.623ZM385.518 533.69V552.259L403.589 534.179L412.38 542.972H430.946L403.584 515.611L385.513 533.685L385.518 533.69Z" fill="#129797"/>
<path d="M478.429 524.898L468.454 514.925L449.893 533.489V543.466V553.443L459.868 543.466L468.454 534.875L477.044 543.466H496.995L478.429 524.898Z" fill="#129797"/>
<path d="M449.403 554.623V533.283L468.454 514.23L498.175 543.951H476.839L468.449 535.56L449.398 554.618L449.403 554.623ZM450.382 533.69V552.259L468.454 534.179L477.245 542.972H495.811L468.449 515.611L450.377 533.685L450.382 533.69Z" fill="#129797"/>
<path d="M543.295 524.898L533.319 514.925L514.758 533.489V543.466V553.443L524.733 543.466L533.319 534.875L541.909 543.466H561.861L543.295 524.898Z" fill="#129797"/>
<path d="M514.268 554.623V533.283L533.319 514.23L563.04 543.951H541.703L533.314 535.56L514.263 554.618L514.268 554.623ZM515.247 533.69V552.259L533.319 534.179L542.11 542.972H560.676L533.314 515.611L515.242 533.685L515.247 533.69Z" fill="#129797"/>
<path d="M608.159 524.898L598.184 514.925L579.623 533.489V543.466V553.443L589.598 543.466L598.184 534.875L606.774 543.466H626.725L608.159 524.898Z" fill="#129797"/>
<path d="M579.133 554.623V533.283L598.184 514.23L627.905 543.951H606.569L598.179 535.56L579.128 554.618L579.133 554.623ZM580.112 533.69V552.259L598.184 534.179L606.975 542.972H625.541L598.179 515.611L580.107 533.685L580.112 533.69Z" fill="#129797"/>
<path d="M673.024 524.898L663.048 514.925L644.487 533.489V543.466V553.443L654.463 543.466L663.048 534.875L671.639 543.466H691.59L673.024 524.898Z" fill="#129797"/>
<path d="M643.998 554.623V533.283L663.049 514.23L692.77 543.951H671.433L663.044 535.56L643.993 554.618L643.998 554.623ZM644.977 533.69V552.259L663.049 534.179L671.84 542.972H690.406L663.044 515.611L644.972 533.685L644.977 533.69Z" fill="#129797"/>
<path d="M737.889 524.898L727.914 514.925L709.353 533.489V543.466V553.443L719.328 543.466L727.914 534.875L736.504 543.466H756.455L737.889 524.898Z" fill="#129797"/>
<path d="M708.863 554.623V533.283L727.914 514.23L757.635 543.951H736.299L727.909 535.56L708.858 554.618L708.863 554.623ZM709.842 533.69V552.259L727.914 534.179L736.705 542.972H755.271L727.909 515.611L709.837 533.685L709.842 533.69Z" fill="#129797"/>
<path d="M802.754 524.898L792.778 514.925L774.217 533.489V543.466V553.443L784.193 543.466L792.778 534.875L801.369 543.466H821.32L802.754 524.898Z" fill="#129797"/>
<path d="M773.728 554.623V533.283L792.779 514.23L822.5 543.951H801.163L792.774 535.56L773.723 554.618L773.728 554.623ZM774.707 533.69V552.259L792.779 534.179L801.57 542.972H820.136L792.774 515.611L774.702 533.685L774.707 533.69Z" fill="#129797"/>
<path d="M867.619 524.898L857.643 514.925L839.082 533.489V543.466V553.443L849.058 543.466L857.643 534.875L866.234 543.466H886.185L867.619 524.898Z" fill="#129797"/>
<path d="M838.593 554.623V533.283L857.643 514.23L887.365 543.951H866.028L857.638 535.56L838.588 554.618L838.593 554.623ZM839.572 533.69V552.259L857.643 534.179L866.434 542.972H885L857.638 515.611L839.567 533.685L839.572 533.69Z" fill="#129797"/>
<path d="M932.484 524.898L922.508 514.925L903.947 533.489V543.466V553.443L913.923 543.466L922.508 534.875L931.099 543.466H951.05L932.484 524.898Z" fill="#129797"/>
<path d="M903.458 554.623V533.283L922.509 514.23L952.23 543.951H930.893L922.504 535.56L903.453 554.618L903.458 554.623ZM904.437 533.69V552.259L922.509 534.179L931.3 542.972H949.866L922.504 515.611L904.432 533.685L904.437 533.69Z" fill="#129797"/>
<path d="M997.348 524.898L987.373 514.925L968.812 533.489V543.466V553.443L978.787 543.466L987.373 534.875L995.963 543.466H1015.91L997.348 524.898Z" fill="#129797"/>
<path d="M968.322 554.623V533.283L987.373 514.23L1017.09 543.951H995.758L987.368 535.56L968.317 554.618L968.322 554.623ZM969.301 533.69V552.259L987.373 534.179L996.164 542.972H1014.73L987.368 515.611L969.296 533.685L969.301 533.69Z" fill="#129797"/>
<path d="M1062.21 524.898L1052.24 514.925L1033.68 533.489V543.466V553.443L1043.65 543.466L1052.24 534.875L1060.83 543.466H1080.78L1062.21 524.898Z" fill="#129797"/>
<path d="M1033.19 554.623V533.283L1052.24 514.23L1081.96 543.951H1060.62L1052.23 535.56L1033.18 554.618L1033.19 554.623ZM1034.17 533.69V552.259L1052.24 534.179L1061.03 542.972H1079.6L1052.23 515.611L1034.16 533.685L1034.17 533.69Z" fill="#129797"/>
<path d="M1127.08 524.898L1117.1 514.925L1098.54 533.489V543.466V553.443L1108.52 543.466L1117.1 534.875L1125.69 543.466H1145.64L1127.08 524.898Z" fill="#129797"/>
<path d="M1098.05 554.623V533.283L1117.1 514.23L1146.82 543.951H1125.49L1117.1 535.56L1098.05 554.618L1098.05 554.623ZM1099.03 533.69V552.259L1117.1 534.179L1125.89 542.972H1144.46L1117.1 515.611L1099.03 533.685L1099.03 533.69Z" fill="#129797"/>
<path d="M1191.94 524.898L1181.97 514.925L1163.41 533.489V543.466V553.443L1173.38 543.466L1181.97 534.875L1190.56 543.466H1210.51L1191.94 524.898Z" fill="#129797"/>
<path d="M1162.92 554.623V533.283L1181.97 514.23L1211.69 543.951H1190.35L1181.96 535.56L1162.91 554.618L1162.92 554.623ZM1163.9 533.69V552.259L1181.97 534.179L1190.76 542.972H1209.33L1181.96 515.611L1163.89 533.685L1163.9 533.69Z" fill="#129797"/>
<path d="M1256.81 524.898L1246.83 514.925L1228.27 533.489V543.466V553.443L1238.25 543.466L1246.83 534.875L1255.42 543.466H1275.37L1256.81 524.898Z" fill="#129797"/>
<path d="M1227.78 554.623V533.283L1246.83 514.23L1276.55 543.951H1255.22L1246.83 535.56L1227.78 554.618L1227.78 554.623ZM1228.76 533.69V552.259L1246.83 534.179L1255.62 542.972H1274.19L1246.83 515.611L1228.76 533.685L1228.76 533.69Z" fill="#129797"/>
<path d="M1321.67 524.898L1311.7 514.925L1293.14 533.489V543.466V553.443L1303.11 543.466L1311.7 534.875L1320.29 543.466H1340.24L1321.67 524.898Z" fill="#129797"/>
<path d="M1292.65 554.623V533.283L1311.7 514.23L1341.42 543.951H1320.08L1311.69 535.56L1292.64 554.618L1292.65 554.623ZM1293.63 533.69V552.259L1311.7 534.179L1320.49 542.972H1339.05L1311.69 515.611L1293.62 533.685L1293.63 533.69Z" fill="#129797"/>
<path d="M1386.54 524.898L1376.56 514.925L1358 533.489V543.466V553.443L1367.98 543.466L1376.56 534.875L1385.15 543.466H1405.1L1386.54 524.898Z" fill="#129797"/>
<path d="M1357.51 554.623V533.283L1376.56 514.23L1406.28 543.951H1384.95L1376.56 535.56L1357.51 554.618L1357.51 554.623ZM1358.49 533.69V552.259L1376.56 534.179L1385.35 542.972H1403.92L1376.56 515.611L1358.49 533.685L1358.49 533.69Z" fill="#129797"/>
<path d="M1451.4 524.898L1441.43 514.925L1422.87 533.489V543.466V553.443L1432.84 543.466L1441.43 534.875L1450.02 543.466H1469.97L1451.4 524.898Z" fill="#129797"/>
<path d="M1422.38 554.623V533.283L1441.43 514.23L1471.15 543.951H1449.81L1441.42 535.56L1422.37 554.618L1422.38 554.623ZM1423.36 533.69V552.259L1441.43 534.179L1450.22 542.972H1468.78L1441.42 515.611L1423.35 533.685L1423.36 533.69Z" fill="#129797"/>
<path d="M1516.27 524.898L1506.29 514.925L1487.73 533.489V543.466V553.443L1497.71 543.466L1506.29 534.875L1514.88 543.466H1534.83L1516.27 524.898Z" fill="#129797"/>
<path d="M1487.24 554.623V533.283L1506.29 514.23L1536.01 543.951H1514.68L1506.29 535.56L1487.24 554.618L1487.24 554.623ZM1488.22 533.69V552.259L1506.29 534.179L1515.08 542.972H1533.65L1506.29 515.611L1488.22 533.685L1488.22 533.69Z" fill="#129797"/>
<path d="M1581.13 524.898L1571.16 514.925L1552.6 533.489V543.466V553.443L1562.57 543.466L1571.16 534.875L1579.75 543.466H1599.7L1581.13 524.898Z" fill="#129797"/>
<path d="M1552.11 554.623V533.283L1571.16 514.23L1600.88 543.951H1579.54L1571.15 535.56L1552.1 554.618L1552.11 554.623ZM1553.09 533.69V552.259L1571.16 534.179L1579.95 542.972H1598.51L1571.15 515.611L1553.08 533.685L1553.09 533.69Z" fill="#129797"/>
<path d="M1646 524.898L1636.02 514.925L1617.46 533.489V543.466V553.443L1627.44 543.466L1636.02 534.875L1644.61 543.466H1664.56L1646 524.898Z" fill="#129797"/>
<path d="M1616.97 554.623V533.283L1636.02 514.23L1665.74 543.951H1644.41L1636.02 535.56L1616.97 554.618L1616.97 554.623ZM1617.95 533.69V552.259L1636.02 534.179L1644.81 542.972H1663.38L1636.02 515.611L1617.95 533.685L1617.95 533.69Z" fill="#129797"/>
<path d="M1710.86 524.898L1700.89 514.925L1682.33 533.489V543.466V553.443L1692.3 543.466L1700.89 534.875L1709.48 543.466H1729.43L1710.86 524.898Z" fill="#129797"/>
<path d="M1681.84 554.623V533.283L1700.89 514.23L1730.61 543.951H1709.27L1700.88 535.56L1681.83 554.618L1681.84 554.623ZM1682.82 533.69V552.259L1700.89 534.179L1709.68 542.972H1728.24L1700.88 515.611L1682.81 533.685L1682.82 533.69Z" fill="#129797"/>
<path d="M1775.73 524.898L1765.75 514.925L1747.19 533.489V543.466V553.443L1757.17 543.466L1765.75 534.875L1774.34 543.466H1794.29L1775.73 524.898Z" fill="#129797"/>
<path d="M1746.7 554.623V533.283L1765.75 514.23L1795.47 543.951H1774.14L1765.75 535.56L1746.7 554.618L1746.7 554.623ZM1747.68 533.69V552.259L1765.75 534.179L1774.54 542.972H1793.11L1765.75 515.611L1747.68 533.685L1747.68 533.69Z" fill="#129797"/>
<path d="M1840.59 524.898L1830.62 514.925L1812.05 533.489V543.466V553.443L1822.03 543.466L1830.62 534.875L1839.21 543.466H1859.16L1840.59 524.898Z" fill="#129797"/>
<path d="M1811.57 554.623V533.283L1830.62 514.23L1860.34 543.951H1839L1830.61 535.56L1811.56 554.618L1811.57 554.623ZM1812.54 533.69V552.259L1830.62 534.179L1839.41 542.972H1857.97L1830.61 515.611L1812.54 533.685L1812.54 533.69Z" fill="#129797"/>
<path d="M1905.46 524.898L1895.48 514.925L1876.92 533.489V543.466V553.443L1886.9 543.466L1895.48 534.875L1904.07 543.466H1924.02L1905.46 524.898Z" fill="#129797"/>
<path d="M1876.43 554.623V533.283L1895.48 514.23L1925.2 543.951H1903.87L1895.48 535.56L1876.43 554.618L1876.43 554.623ZM1877.41 533.69V552.259L1895.48 534.179L1904.27 542.972H1922.84L1895.48 515.611L1877.4 533.685L1877.41 533.69Z" fill="#129797"/>
</g>
<defs>
<clipPath id="clip0_37_293">
<rect width="1920" height="549" fill="white"/>
</clipPath>
</defs>
</svg>
