<svg width="128" height="128" viewBox="0 0 128 128" fill="none" xmlns="http://www.w3.org/2000/svg">
<path d="M16.7974 48.657V40.0443C16.7974 38.9957 17.3449 38.0232 18.2414 37.4794L63.6319 9.94391C64.5881 9.36383 65.7876 9.36383 66.7438 9.94391L112.134 37.4794C113.031 38.0232 113.578 38.9957 113.578 40.0443V48.657C113.578 50.3139 112.235 51.657 110.578 51.657H65.1879H19.7974C18.1405 51.657 16.7974 50.3139 16.7974 48.657Z" stroke="#064948" stroke-width="5"/>
<circle cx="64.9588" cy="32.8514" r="5.7562" stroke="#064948" stroke-width="5"/>
<rect x="23.4258" y="51.8638" width="12.4298" height="39.9504" stroke="#064948" stroke-width="5"/>
<rect x="94.062" y="51.8638" width="12.4298" height="39.9504" stroke="#064948" stroke-width="5"/>
<mask id="path-5-inside-1_38_1162" fill="white">
<path d="M110 102.57C115.523 102.57 120 107.047 120 112.57L120 117C120 118.657 118.657 120 117 120L12 120C10.3431 120 9 118.657 9 117L9 112.57C9 107.047 13.4772 102.57 19 102.57L110 102.57Z"/>
</mask>
<path d="M110 102.57C115.523 102.57 120 107.047 120 112.57L120 117C120 118.657 118.657 120 117 120L12 120C10.3431 120 9 118.657 9 117L9 112.57C9 107.047 13.4772 102.57 19 102.57L110 102.57Z" stroke="#064948" stroke-width="10" mask="url(#path-5-inside-1_38_1162)"/>
<path d="M111.079 99.7271L111.079 104.657L16.0869 104.657L16.0869 99.7271C16.0869 95.5849 19.4447 92.227 23.5869 92.227L103.579 92.2271C107.721 92.2271 111.079 95.5849 111.079 99.7271Z" stroke="#064948" stroke-width="5"/>
<rect x="58.2852" y="51.8638" width="12.4298" height="39.9504" stroke="#064948" stroke-width="5"/>
</svg>
