<svg xmlns="http://www.w3.org/2000/svg" viewBox="0 0 256.9 193.05"><defs><style>.cls-1,.cls-2{fill:none;stroke-miterlimit:10;stroke-width:2px;}.cls-1{stroke:#102228;}.cls-2{stroke:#074949;}.cls-3{fill:#102228;}.cls-4{fill:#074949;}</style></defs><g id="Camada_2" data-name="Camada 2"><g id="Camada_1-2" data-name="Camada 1"><g id="Layer_2" data-name="Layer 2"><g id="Layer_1-2" data-name="Layer 1-2"><polygon class="cls-1" points="214.43 97.02 159.89 151.56 105.35 97.02 159.89 42.48 159.89 2.41 65.28 97.02 159.89 191.63 254.49 97.02 214.43 97.02"/><polygon class="cls-2" points="213.03 54.57 192.99 34.53 167.13 60.39 187.17 80.43 192.99 74.6 210.25 91.85 250.31 91.85 213.03 54.57"/><polygon class="cls-3" points="149.14 97.02 94.6 151.56 40.06 97.02 94.6 42.48 94.6 2.41 0 97.02 94.6 191.63 189.21 97.02 149.14 97.02"/><polygon class="cls-4" points="147.74 54.57 127.71 34.53 90.42 71.82 90.42 91.85 90.42 111.89 110.45 91.85 127.71 74.6 144.96 91.85 185.03 91.85 147.74 54.57"/></g></g></g></g></svg>