<svg width="262" height="197" viewBox="0 0 262 197" fill="none" xmlns="http://www.w3.org/2000/svg">
<path d="M162.65 196.29L65.0098 98.64L163.65 0V43.59L108.58 98.65L162.65 152.72L217.71 97.65H261.3L162.66 196.3L162.65 196.29ZM67.8298 98.64L162.65 193.47L256.47 99.64H218.54L162.66 155.53L105.77 98.64L161.66 42.76V4.82L67.8398 98.64H67.8298Z" fill="#064948"/>
<path d="M257.04 94.3899H213.45L196.31 77.2599L190.39 83.1899L168.6 61.3999L196.31 33.6899L257.03 94.3999L257.04 94.3899ZM214.28 92.3899H252.21L196.31 36.4999L171.42 61.3899L190.39 80.3499L196.31 74.4199L214.27 92.3799L214.28 92.3899Z" fill="#129797"/>
<path d="M151.7 98.6402L96.23 154.12L40.76 98.6402L96.23 43.1702V2.41016L0 98.6402L96.23 194.88L192.46 98.6402H151.7Z" fill="#064948"/>
<path d="M150.279 55.4598L129.899 35.0898L91.9795 73.0098V93.3898V113.77L112.359 93.3898L129.899 75.8398L147.449 93.3898H188.21L150.279 55.4598Z" fill="#129797"/>
<path d="M90.9797 116.18V72.5899L129.9 33.6699L190.62 94.3799H147.03L129.89 77.2399L90.9697 116.17L90.9797 116.18ZM92.9797 73.4199V111.35L129.9 74.4199L147.86 92.3799H185.79L129.89 36.4899L92.9697 73.4099L92.9797 73.4199Z" fill="#129797"/>
</svg>
