<svg width="128" height="128" viewBox="0 0 128 128" fill="none" xmlns="http://www.w3.org/2000/svg">
<mask id="path-1-inside-1_38_1163" fill="white">
<path d="M23 113C14.7157 113 8 106.284 8 98L8 38.125C8 36.4682 9.34314 35.125 11 35.125L117 35.125C118.657 35.125 120 36.4681 120 38.125L120 98C120 106.284 113.284 113 105 113L23 113Z"/>
</mask>
<path d="M23 113C14.7157 113 8 106.284 8 98L8 38.125C8 36.4682 9.34314 35.125 11 35.125L117 35.125C118.657 35.125 120 36.4681 120 38.125L120 98C120 106.284 113.284 113 105 113L23 113Z" stroke="#064948" stroke-width="10" mask="url(#path-1-inside-1_38_1163)"/>
<path fill-rule="evenodd" clip-rule="evenodd" d="M14.9653 36.8057C17.635 43.3525 21.5471 49.2986 26.4763 54.3054C31.4055 59.3122 37.255 63.2816 43.6901 65.9891C45.8387 66.8931 48.0387 67.6505 50.2754 68.2585V61.8865C50.2754 61.1206 50.8963 60.4997 51.6622 60.4997L76.8886 60.4997C77.6545 60.4997 78.2754 61.1206 78.2754 61.8865V68.0962C80.3112 67.5174 82.3154 66.8143 84.2768 65.9891C90.7118 63.2816 96.5614 59.3122 101.491 54.3054C106.42 49.2986 110.332 43.3525 113.002 36.8057L117.631 38.6937C114.717 45.8415 110.443 52.3386 105.054 57.8132C99.6638 63.2879 93.2631 67.6327 86.2158 70.5978C83.5688 71.7114 80.8503 72.6222 78.0831 73.3253C76.9754 79.9504 71.215 84.9997 64.2754 84.9997C57.3887 84.9997 51.6634 80.0272 50.4938 73.4768C47.516 72.7548 44.5923 71.7932 41.7511 70.5978C34.7038 67.6327 28.3031 63.2879 22.9133 57.8132C17.5236 52.3386 13.2503 45.8415 10.3354 38.6937L14.9653 36.8057ZM55.2754 70.9997V65.4997L73.2754 65.4997V70.9997C73.2754 75.9702 69.2459 79.9997 64.2754 79.9997C59.3048 79.9997 55.2754 75.9702 55.2754 70.9997Z" fill="#064948"/>
<mask id="path-3-inside-2_38_1163" fill="white">
<path d="M78.5 15C84.0228 15 88.5 19.4772 88.5 25L88.5 36.5C88.5 38.1569 87.1569 39.5 85.5 39.5L43.375 39.5C41.7181 39.5 40.375 38.1569 40.375 36.5L40.375 25C40.375 19.4772 44.8522 15 50.375 15L78.5 15Z"/>
</mask>
<path d="M78.5 15C84.0228 15 88.5 19.4772 88.5 25L88.5 36.5C88.5 38.1569 87.1569 39.5 85.5 39.5L43.375 39.5C41.7181 39.5 40.375 38.1569 40.375 36.5L40.375 25C40.375 19.4772 44.8522 15 50.375 15L78.5 15Z" stroke="#064948" stroke-width="10" mask="url(#path-3-inside-2_38_1163)"/>
</svg>
