<svg width="128" height="128" viewBox="0 0 128 128" fill="none" xmlns="http://www.w3.org/2000/svg">
<path fill-rule="evenodd" clip-rule="evenodd" d="M61.7071 16.0711L37.8178 39.9604L42.9244 45.067L66.8137 21.1777L61.7071 16.0711ZM63.8284 11.1214C62.6568 9.94978 60.7573 9.94978 59.5857 11.1214L32.868 37.8391C31.6964 39.0107 31.6964 40.9102 32.868 42.0817L40.8031 50.0168C41.9746 51.1884 43.8741 51.1884 45.0457 50.0168L47.6047 47.4578L53.7461 53.5992L53.693 53.6523L14.1144 93.2309C10.7516 96.5937 10.7516 102.046 14.1144 105.409C17.4771 108.771 22.9293 108.771 26.2921 105.409L65.8707 65.83L65.9238 65.7769L72.6902 72.5432L70.4266 74.8069C69.255 75.9784 69.255 77.8779 70.4266 79.0495L78.3617 86.9846C79.5332 88.1561 81.4327 88.1561 82.6043 86.9846L109.322 60.2668C110.494 59.0953 110.494 57.1958 109.322 56.0242L101.387 48.0891C100.215 46.9176 98.3159 46.9176 97.1443 48.0891L94.0504 51.1831L68.9649 26.0976L71.7634 23.2991C72.935 22.1275 72.935 20.228 71.7634 19.0564L63.8284 11.1214ZM99.2656 53.0389L75.3763 76.9282L80.483 82.0348L104.372 58.1455L99.2656 53.0389ZM68 106H115V113H68V106ZM117 101C118.657 101 120 102.343 120 104V115C120 116.657 118.657 118 117 118H66C64.3432 118 63 116.657 63 115V104C63 102.343 64.3432 101 66 101H117ZM51.1507 43.9327L76.1017 68.8837L90.3908 54.5946L65.4398 29.6436L51.1507 43.9327ZM57.2285 57.1878L62.3352 62.2944L22.7565 101.873C21.3464 103.283 19.0601 103.283 17.6499 101.873C16.2397 100.463 16.2397 98.1766 17.6499 96.7664L57.2285 57.1878Z" fill="#064948"/>
</svg>
