<svg xmlns="http://www.w3.org/2000/svg" viewBox="0 0 1187 395.72"><defs><style>.cls-1,.cls-2,.cls-5{fill:none;}.cls-1,.cls-5{stroke:#102228;}.cls-1,.cls-2{stroke-miterlimit:10;stroke-width:2px;}.cls-2{stroke:#074949;}.cls-3{fill:#102228;}.cls-4{fill:#074949;}.cls-5{stroke-linecap:round;stroke-linejoin:round;}</style></defs><title>GURGELAsset 34</title><g id="Layer_2" data-name="Layer 2"><g id="Layer_1-2" data-name="Layer 1"><polygon class="cls-1" points="677.23 97.02 622.69 151.56 568.15 97.02 622.69 42.48 622.69 2.41 528.08 97.02 622.69 191.63 717.29 97.02 677.23 97.02"/><polygon class="cls-2" points="675.83 54.57 655.79 34.53 629.93 60.39 649.97 80.43 655.79 74.6 673.05 91.85 713.11 91.85 675.83 54.57"/><polygon class="cls-3" points="611.94 97.02 557.4 151.56 502.86 97.02 557.4 42.48 557.4 2.41 462.8 97.02 557.4 191.63 652.01 97.02 611.94 97.02"/><polygon class="cls-4" points="610.54 54.57 590.51 34.53 553.22 71.82 553.22 91.85 553.22 111.89 573.25 91.85 590.51 74.6 607.76 91.85 647.83 91.85 610.54 54.57"/><path class="cls-3" d="M48.33,333.08a44.76,44.76,0,0,1-22.59-5.55,38,38,0,0,1-15-15.59q-5.31-10-5.3-23.4a56.23,56.23,0,0,1,2.71-17.29,48.38,48.38,0,0,1,8.2-15.39A39.84,39.84,0,0,1,30.1,244.81a42.79,42.79,0,0,1,19.24-4.1,55.16,55.16,0,0,1,17.6,3,41.54,41.54,0,0,1,7.89,3.66l-.51-5.8h7.83v29H76.34a26,26,0,0,0-4.23-12.81,23.24,23.24,0,0,0-9.21-7.95,28.14,28.14,0,0,0-12.43-2.71,25.25,25.25,0,0,0-12.17,3,30.1,30.1,0,0,0-9.53,8.2,39.33,39.33,0,0,0-6.25,12.31,50.57,50.57,0,0,0-2.2,15.14,52.24,52.24,0,0,0,3.84,20.63,33.36,33.36,0,0,0,10.92,14.2,27.22,27.22,0,0,0,16.53,5.17,42.41,42.41,0,0,0,6.62-.57,45,45,0,0,0,7.2-1.76,28.47,28.47,0,0,0,6.5-3.09V306.2q0-3.15.06-6.24c0-2.06.06-4,.06-5.74l-4.54.25c-1.68.08-3.16.17-4.42.25v-6.94H93.25v5.55a7.88,7.88,0,0,0-4.86,1.39,8,8,0,0,0-2.65,3.47,16.92,16.92,0,0,0-1.07,4.42,40,40,0,0,0-.25,4.35v19.69H81.14a28.22,28.22,0,0,0-6.19.81,66.31,66.31,0,0,0-8,2.47,55.88,55.88,0,0,1-9,2.27A57.16,57.16,0,0,1,48.33,333.08Z" transform="translate(-5.43)"/><path class="cls-3" d="M130.35,248.28a9.35,9.35,0,0,0-5.55,1.39,6.61,6.61,0,0,0-2.53,3.72,20.18,20.18,0,0,0-.63,5.24v32.68a70.7,70.7,0,0,0,1.2,13.57,32.3,32.3,0,0,0,3.91,10.6,19,19,0,0,0,7.45,7,25.24,25.24,0,0,0,11.54,2.65q8.46,0,13.88-3.78a22.72,22.72,0,0,0,8.14-10.86,48.43,48.43,0,0,0,2.84-16.78l.25-34.7c0-1.85,0-3.64.13-5.36s.17-3.22.25-4.48l-4.67.25c-1.68.08-3.2.17-4.54.25v-6.94h25.49v5.55q-4.17.14-6.06,1.71a7.2,7.2,0,0,0-2.39,4.54,47.52,47.52,0,0,0-.51,7.76l-.13,30a62,62,0,0,1-2.08,16.6A36.82,36.82,0,0,1,170,321.85a27.69,27.69,0,0,1-10.72,8.33,37.47,37.47,0,0,1-15.33,2.9q-10.23,0-17.17-2.78a25.08,25.08,0,0,1-11-8.26,34.7,34.7,0,0,1-5.86-13.5,86.34,86.34,0,0,1-1.77-18.49V262.79q0-3.41.19-7.44c.12-2.69.23-4.75.31-6.18-1.43.08-3,.14-4.66.19s-3.2.1-4.55.19v-6.82h30.92Z" transform="translate(-5.43)"/><path class="cls-3" d="M197.73,331.06v-5.55c2.78-.17,4.77-.76,6-1.77a7.18,7.18,0,0,0,2.34-4.54,49.08,49.08,0,0,0,.5-7.7V259c0-1.85,0-3.64.13-5.36s.17-3.22.25-4.48l-4.67.25c-1.68.08-3.2.17-4.54.25v-6.94q7.7-.12,15.52-.19t15.77.07q11.86,0,19.56,2.71t11.55,8q3.84,5.29,3.72,13.38a23.72,23.72,0,0,1-2,10,22.63,22.63,0,0,1-7.19,8.89q-5.05,3.92-13.88,5.93a16.31,16.31,0,0,1,4.54,4.17c1.35,1.77,2.73,3.74,4.17,5.93l7.69,11.86c1.6,2.53,3.07,4.67,4.42,6.44a15.46,15.46,0,0,0,4.54,4.1,11.92,11.92,0,0,0,6.06,1.45v5.55H254.64a34.29,34.29,0,0,1-5.62-6q-2.33-3.22-5-7.26l-8.71-14.13q-1.64-2.52-3.47-5.43a25.31,25.31,0,0,0-4-4.92h-7.95v20.82q0,3.41-.06,6.12a36.61,36.61,0,0,1-.32,4.36c1-.09,2.08-.15,3.22-.19s2.27-.11,3.4-.19,2.13-.13,3-.13v6.94Zm29.53-43.91a31.79,31.79,0,0,0,11.86-2.21,15.85,15.85,0,0,0,7.57-6.43q2.66-4.36,2.65-11.3a22.14,22.14,0,0,0-1.52-8.71,14.46,14.46,0,0,0-4.29-5.74,17,17,0,0,0-6.62-3.15,34.61,34.61,0,0,0-8.27-1q-4,0-5.86,1.52a7.08,7.08,0,0,0-2.34,4.41,45.75,45.75,0,0,0-.5,7.45v24.73c1.26.09,2.46.19,3.59.32A22.81,22.81,0,0,0,227.26,287.15Z" transform="translate(-5.43)"/><path class="cls-3" d="M320.76,333.08a44.76,44.76,0,0,1-22.59-5.55,38,38,0,0,1-15-15.59q-5.31-10-5.3-23.4a56.23,56.23,0,0,1,2.71-17.29,48.38,48.38,0,0,1,8.2-15.39,39.9,39.9,0,0,1,13.75-11.05,42.86,42.86,0,0,1,19.25-4.1,55.16,55.16,0,0,1,17.6,3,41.54,41.54,0,0,1,7.89,3.66l-.51-5.8h7.83v29h-5.81a26,26,0,0,0-4.23-12.81,23.31,23.31,0,0,0-9.21-7.95,28.14,28.14,0,0,0-12.43-2.71,25.25,25.25,0,0,0-12.17,3,30.1,30.1,0,0,0-9.53,8.2A39.12,39.12,0,0,0,295,270.62a50.57,50.57,0,0,0-2.2,15.14,52.24,52.24,0,0,0,3.84,20.63,33.36,33.36,0,0,0,10.92,14.2A27.22,27.22,0,0,0,324,325.76a42.41,42.41,0,0,0,6.62-.57,45,45,0,0,0,7.2-1.76,28.19,28.19,0,0,0,6.49-3.09V306.2q0-3.15.07-6.24c0-2.06.06-4,.06-5.74l-4.54.25c-1.69.08-3.16.17-4.42.25v-6.94h30.16v5.55a7.88,7.88,0,0,0-4.86,1.39,8,8,0,0,0-2.65,3.47,16.92,16.92,0,0,0-1.07,4.42,40,40,0,0,0-.25,4.35v19.69h-3.28a28.22,28.22,0,0,0-6.19.81,66.31,66.31,0,0,0-7.95,2.47,55.88,55.88,0,0,1-9,2.27A57.16,57.16,0,0,1,320.76,333.08Z" transform="translate(-5.43)"/><path class="cls-3" d="M418.55,299.14q0-5.43-1.58-7.83a6.85,6.85,0,0,0-4.73-3,34.36,34.36,0,0,0-7.82-.32l-7.32.25v26.25q0,3.41-.06,6a35.31,35.31,0,0,1-.32,4.23l21.7-.25a23.33,23.33,0,0,0,8.84-1.83,12.84,12.84,0,0,0,6.18-5.87q2.26-4.16,2.27-11.35h5.55l-.75,25.61H374.89v-5.55c2.78-.17,4.77-.76,6-1.77a7.18,7.18,0,0,0,2.34-4.54,49.08,49.08,0,0,0,.5-7.7V259c0-1.85,0-3.64.13-5.36s.17-3.22.25-4.48l-4.67.25c-1.68.08-3.2.17-4.54.25v-6.94h61.58l.63,22.84h-5.55q0-7.19-2.34-11a11.3,11.3,0,0,0-6-5,22.89,22.89,0,0,0-8-1.14l-8.83.25a10.78,10.78,0,0,0-5.93,1.33,6.42,6.42,0,0,0-2.65,4.29,40.3,40.3,0,0,0-.63,8V282.1h20.82l-.76-10.85h6.94v27.89Z" transform="translate(-5.43)"/><path class="cls-3" d="M453.5,331.06v-5.55c2.78-.17,4.77-.76,6-1.77a7.22,7.22,0,0,0,2.33-4.54,49.08,49.08,0,0,0,.5-7.7V259c0-1.85.05-3.64.13-5.36s.17-3.22.25-4.48c-1.43.08-3,.17-4.67.25s-3.19.17-4.54.25v-6.94h31v5.55q-4,.14-5.93,1.71a7.26,7.26,0,0,0-2.4,4.54,48.85,48.85,0,0,0-.5,7.76v52.24q0,3.41-.06,6a35.31,35.31,0,0,1-.32,4.23l21.33-.25q7.81-.12,12-5.11t4.17-15.84h5.68l-.76,27.51Z" transform="translate(-5.43)"/><path class="cls-3" d="M587.89,333.08A44.79,44.79,0,0,1,577,331.76a29.25,29.25,0,0,1-9.59-4.3,21.64,21.64,0,0,1-6.81-7.57,23,23,0,0,1-2.52-11.16,21.84,21.84,0,0,1,5.42-14.58,36.84,36.84,0,0,1,14.26-10,60.73,60.73,0,0,1-5.8-8.39,32,32,0,0,1-3.1-7.51,29.17,29.17,0,0,1-.94-7.32q.12-9.33,6.69-14.76t16.91-5.43a24.58,24.58,0,0,1,11.35,2.46,18.72,18.72,0,0,1,7.45,6.63,17.07,17.07,0,0,1,2.65,9.34,20.41,20.41,0,0,1-2.21,9.21,27.07,27.07,0,0,1-6.63,8.26,57.75,57.75,0,0,1-11.1,7.38q2.52,2.53,6.25,6.44t8,8.14q4.29,4.23,8.2,7.88a34.46,34.46,0,0,0,.76-3.91,26.48,26.48,0,0,0,.25-3.53,18.82,18.82,0,0,0-.82-5.74,8.93,8.93,0,0,0-2.65-4.16A8.06,8.06,0,0,0,608,287.4v-5.55h21.7v6.69l-9.21-.51a9.91,9.91,0,0,1,2.21,4,23.37,23.37,0,0,1,.82,5.55A29.78,29.78,0,0,1,623,304a44.68,44.68,0,0,1-2,7.39l2.33,2.08c.8.71,1.66,1.45,2.59,2.21a74.66,74.66,0,0,0,9.46,7.31c2.69,1.69,4.8,2.53,6.31,2.53v5.55H629.27c-.75,0-2.39-.73-4.92-2.21a72.34,72.34,0,0,1-9.59-7.13,37.21,37.21,0,0,1-11,8.08A35.26,35.26,0,0,1,587.89,333.08Zm2.27-7.19a25,25,0,0,0,11.73-2.27,24.26,24.26,0,0,0,8-6.19c-.76-.67-1.49-1.36-2.21-2.08a28,28,0,0,0-2.33-2.08q-8.09-7.83-13.88-13.63T581.2,288.92a17.48,17.48,0,0,0-5.36,5.48,23.61,23.61,0,0,0-2.78,6.44,23,23,0,0,0-.82,5.61,21.2,21.2,0,0,0,2.46,10.79,16.22,16.22,0,0,0,6.56,6.38A20.14,20.14,0,0,0,590.16,325.89Zm-.76-46.06a29.48,29.48,0,0,0,9.34-10,22.52,22.52,0,0,0,3-10.66,14.32,14.32,0,0,0-2.84-9.15,9.64,9.64,0,0,0-8-3.6,9.94,9.94,0,0,0-7.69,3.53q-3.16,3.54-3.16,10.1a22.29,22.29,0,0,0,2.65,10A46.11,46.11,0,0,0,589.4,279.83Z" transform="translate(-5.43)"/><path class="cls-3" d="M722.27,333.08a44.76,44.76,0,0,1-22.59-5.55,38,38,0,0,1-15-15.59q-5.31-10-5.3-23.4a56.23,56.23,0,0,1,2.71-17.29,48.38,48.38,0,0,1,8.2-15.39A39.93,39.93,0,0,1,704,244.81a42.82,42.82,0,0,1,19.24-4.1,55,55,0,0,1,17.6,3,41.54,41.54,0,0,1,7.89,3.66l-.51-5.8h7.83v29h-5.81a26.09,26.09,0,0,0-4.22-12.81,23.34,23.34,0,0,0-9.22-7.95,28.13,28.13,0,0,0-12.42-2.71,25.29,25.29,0,0,0-12.18,3,30.1,30.1,0,0,0-9.53,8.2,39.1,39.1,0,0,0-6.24,12.31,50.25,50.25,0,0,0-2.21,15.14,52.06,52.06,0,0,0,3.85,20.63A33.27,33.27,0,0,0,709,320.59a27.22,27.22,0,0,0,16.53,5.17,42.63,42.63,0,0,0,6.63-.57,45.1,45.1,0,0,0,7.19-1.76,28.27,28.27,0,0,0,6.5-3.09V306.2q0-3.15.06-6.24c0-2.06.06-4,.06-5.74l-4.54.25c-1.68.08-3.15.17-4.42.25v-6.94h30.16v5.55a7.88,7.88,0,0,0-4.86,1.39,8,8,0,0,0-2.65,3.47,17.32,17.32,0,0,0-1.07,4.42,40,40,0,0,0-.25,4.35v19.69h-3.28a28.07,28.07,0,0,0-6.18.81,65.21,65.21,0,0,0-7.95,2.47,56.43,56.43,0,0,1-9,2.27A57.36,57.36,0,0,1,722.27,333.08Z" transform="translate(-5.43)"/><path class="cls-3" d="M804.29,248.28a9.35,9.35,0,0,0-5.55,1.39,6.66,6.66,0,0,0-2.53,3.72,20.18,20.18,0,0,0-.63,5.24v32.68a70.7,70.7,0,0,0,1.2,13.57,32.3,32.3,0,0,0,3.91,10.6,19,19,0,0,0,7.45,7,25.24,25.24,0,0,0,11.54,2.65q8.46,0,13.88-3.78a22.72,22.72,0,0,0,8.14-10.86,48.43,48.43,0,0,0,2.84-16.78l.25-34.7c0-1.85.05-3.64.13-5.36s.17-3.22.25-4.48c-1.43.08-3,.17-4.67.25s-3.19.17-4.54.25v-6.94h25.49v5.55q-4.16.14-6.06,1.71a7.2,7.2,0,0,0-2.39,4.54,47.52,47.52,0,0,0-.51,7.76l-.12,30a62,62,0,0,1-2.09,16.6A36.65,36.65,0,0,1,844,321.85a27.61,27.61,0,0,1-10.72,8.33,37.44,37.44,0,0,1-15.33,2.9q-10.23,0-17.16-2.78a25,25,0,0,1-11-8.26,34.56,34.56,0,0,1-5.87-13.5,86.34,86.34,0,0,1-1.77-18.49V262.79q0-3.41.19-7.44c.13-2.69.23-4.75.32-6.18-1.44.08-3,.14-4.67.19s-3.2.1-4.55.19v-6.82h30.92Z" transform="translate(-5.43)"/><path class="cls-3" d="M871.67,331.06v-5.55c2.78-.17,4.77-.76,6-1.77A7.18,7.18,0,0,0,880,319.2a49.08,49.08,0,0,0,.5-7.7V259c0-1.85,0-3.64.13-5.36s.17-3.22.25-4.48c-1.43.08-3,.17-4.67.25s-3.19.17-4.54.25v-6.94q7.7-.12,15.52-.19t15.78.07q11.85,0,19.55,2.71t11.55,8q3.84,5.29,3.72,13.38a23.72,23.72,0,0,1-2,10,22.63,22.63,0,0,1-7.19,8.89q-5.05,3.92-13.88,5.93a16.17,16.17,0,0,1,4.54,4.17c1.35,1.77,2.74,3.74,4.17,5.93l7.69,11.86c1.6,2.53,3.07,4.67,4.42,6.44a15.58,15.58,0,0,0,4.54,4.1,11.92,11.92,0,0,0,6.06,1.45v5.55H928.58a33.85,33.85,0,0,1-5.61-6q-2.34-3.22-5-7.26l-8.71-14.13q-1.63-2.52-3.47-5.43a25.31,25.31,0,0,0-4-4.92h-8v20.82q0,3.41-.06,6.12a36.61,36.61,0,0,1-.32,4.36c1-.09,2.08-.15,3.22-.19s2.27-.11,3.41-.19,2.12-.13,3-.13v6.94Zm29.53-43.91a31.79,31.79,0,0,0,11.86-2.21,15.85,15.85,0,0,0,7.57-6.43q2.65-4.36,2.65-11.3a22.14,22.14,0,0,0-1.51-8.71,14.56,14.56,0,0,0-4.29-5.74,17.07,17.07,0,0,0-6.63-3.15,34.59,34.59,0,0,0-8.26-1c-2.7,0-4.65.51-5.87,1.52a7.08,7.08,0,0,0-2.34,4.41,45.75,45.75,0,0,0-.5,7.45v24.73c1.26.09,2.46.19,3.6.32A22.67,22.67,0,0,0,901.2,287.15Z" transform="translate(-5.43)"/><path class="cls-3" d="M994.7,333.08a44.76,44.76,0,0,1-22.59-5.55,38,38,0,0,1-15-15.59q-5.31-10-5.3-23.4a56.23,56.23,0,0,1,2.71-17.29,48.38,48.38,0,0,1,8.2-15.39,39.93,39.93,0,0,1,13.76-11.05,42.79,42.79,0,0,1,19.24-4.1,55,55,0,0,1,17.6,3,41.54,41.54,0,0,1,7.89,3.66l-.51-5.8h7.83v29h-5.81a26.09,26.09,0,0,0-4.22-12.81,23.34,23.34,0,0,0-9.22-7.95,28.14,28.14,0,0,0-12.43-2.71,25.28,25.28,0,0,0-12.17,3,30.1,30.1,0,0,0-9.53,8.2,39.33,39.33,0,0,0-6.25,12.31,50.57,50.57,0,0,0-2.2,15.14,52.06,52.06,0,0,0,3.85,20.63,33.27,33.27,0,0,0,10.91,14.2A27.22,27.22,0,0,0,998,325.76a42.63,42.63,0,0,0,6.63-.57,45.1,45.1,0,0,0,7.19-1.76,28.27,28.27,0,0,0,6.5-3.09V306.2q0-3.15.06-6.24c0-2.06.06-4,.06-5.74l-4.54.25c-1.68.08-3.15.17-4.42.25v-6.94h30.16v5.55a7.88,7.88,0,0,0-4.86,1.39,8,8,0,0,0-2.65,3.47,17.32,17.32,0,0,0-1.07,4.42,40,40,0,0,0-.25,4.35v19.69h-3.28a28.22,28.22,0,0,0-6.19.81,65.65,65.65,0,0,0-7.94,2.47,56.43,56.43,0,0,1-9,2.27A57.36,57.36,0,0,1,994.7,333.08Z" transform="translate(-5.43)"/><path class="cls-3" d="M1092.49,299.14c0-3.62-.52-6.23-1.58-7.83a6.85,6.85,0,0,0-4.73-3,34.36,34.36,0,0,0-7.82-.32l-7.32.25v26.25q0,3.41-.06,6a35.31,35.31,0,0,1-.32,4.23l21.71-.25a23.28,23.28,0,0,0,8.83-1.83,12.84,12.84,0,0,0,6.18-5.87q2.28-4.16,2.27-11.35h5.55l-.75,25.61h-65.62v-5.55c2.78-.17,4.77-.76,6-1.77a7.22,7.22,0,0,0,2.33-4.54,49.08,49.08,0,0,0,.5-7.7V259c0-1.85,0-3.64.13-5.36s.17-3.22.25-4.48c-1.43.08-3,.17-4.67.25s-3.19.17-4.54.25v-6.94h61.58l.63,22.84h-5.55q0-7.19-2.34-11a11.3,11.3,0,0,0-6.05-5,22.89,22.89,0,0,0-8-1.14l-8.83.25a10.81,10.81,0,0,0-5.93,1.33,6.42,6.42,0,0,0-2.65,4.29,40.3,40.3,0,0,0-.63,8V282.1h20.82l-.76-10.85H1098v27.89Z" transform="translate(-5.43)"/><path class="cls-3" d="M1127.44,331.06v-5.55q4.17-.25,6-1.77a7.18,7.18,0,0,0,2.33-4.54,47.74,47.74,0,0,0,.51-7.7V259c0-1.85,0-3.64.12-5.36s.17-3.22.26-4.48l-4.67.25c-1.69.08-3.2.17-4.55.25v-6.94h31v5.55c-2.7.09-4.67.66-5.94,1.71a7.2,7.2,0,0,0-2.39,4.54,47.52,47.52,0,0,0-.51,7.76v52.24q0,3.41-.06,6a33.33,33.33,0,0,1-.32,4.23l21.33-.25q7.82-.12,12-5.11t4.16-15.84h5.68l-.76,27.51Z" transform="translate(-5.43)"/><path class="cls-3" d="M480.56,395.11v-1.72a2.37,2.37,0,0,0,1.76-.61,4.86,4.86,0,0,0,1-1.66c.28-.7.58-1.48.92-2.35l7.7-21.1h1.53l8.36,21.41c.2.48.43,1.14.68,2a6.47,6.47,0,0,1,.35,2.12c.43-.05.85-.08,1.27-.1l1.21-.05v2.1h-9.28v-1.68a2.35,2.35,0,0,0,1.78-.59,1.8,1.8,0,0,0,.34-1.36,6.7,6.7,0,0,0-.4-1.6l-1.14-3.09-9.35.23-1.11,3.32c-.15.5-.32,1-.49,1.45s-.36.9-.54,1.33q.69-.08,1.47-.09L488,393v2.14ZM488,385h8l-2.41-6.45c-.3-.84-.59-1.67-.87-2.5s-.54-1.62-.77-2.39h0c-.2.64-.43,1.34-.68,2.1s-.55,1.59-.88,2.48Z" transform="translate(-5.43)"/><path class="cls-3" d="M507.12,393.43a3.11,3.11,0,0,0,1.81-.54,2.14,2.14,0,0,0,.71-1.37,14.88,14.88,0,0,0,.15-2.33V373.32c0-.56,0-1.1,0-1.62s.05-1,.08-1.36l-1.42.08-1.37.08v-2.1l9.73,0a20.59,20.59,0,0,1,6.37.91,13.43,13.43,0,0,1,4.81,2.66,11.15,11.15,0,0,1,3,4.21,14.26,14.26,0,0,1,1,5.53,14.43,14.43,0,0,1-.87,5,12.19,12.19,0,0,1-2.69,4.3,13.28,13.28,0,0,1-4.56,3,16.87,16.87,0,0,1-6.49,1.15H507.12Zm6.72-3.4c0,.69,0,1.3,0,1.83a12.15,12.15,0,0,1-.1,1.3l1.6,0,1.44,0h.89a9.53,9.53,0,0,0,4.2-.88,8.93,8.93,0,0,0,3.11-2.44,11.12,11.12,0,0,0,1.95-3.63,14.24,14.24,0,0,0,.66-4.38,14.72,14.72,0,0,0-1.22-6.34,8.64,8.64,0,0,0-3.68-4,12.81,12.81,0,0,0-6.12-1.41,3.09,3.09,0,0,0-1.84.44A2,2,0,0,0,514,372a14.74,14.74,0,0,0-.15,2.32Z" transform="translate(-5.43)"/><path class="cls-3" d="M545.47,395.45l-8.7-20.38a26.67,26.67,0,0,1-1-2.74,10.52,10.52,0,0,1-.42-1.91c-.36,0-.71,0-1.07,0s-.7,0-1,0v-2.1h9.65l0,1.71a2.44,2.44,0,0,0-2.24,1,3.24,3.24,0,0,0,.25,2.74c.59,1.48,1.16,2.93,1.74,4.35s1.19,2.92,1.85,4.47c.53,1.3,1,2.52,1.52,3.66s.91,2.16,1.26,3h0c.28-.84.57-1.68.88-2.53s.65-1.8,1-2.85q.92-2.59,1.6-4.5c.46-1.27.87-2.4,1.22-3.39l1-2.68c.2-.58.41-1.15.63-1.69a9.32,9.32,0,0,1,.63-1.36l-1.49.08-1.45.08v-2.1h8v1.68a3.74,3.74,0,0,0-2.44.91,7.52,7.52,0,0,0-1.68,2.94c-.18.46-.36.95-.55,1.47s-.42,1.13-.69,1.83-.58,1.54-.94,2.54-.79,2.2-1.31,3.64-1.15,3.14-1.87,5.09-1.58,4.28-2.58,6.95Z" transform="translate(-5.43)"/><path class="cls-3" d="M573.36,395.72a14.43,14.43,0,0,1-6.2-1.22,11.52,11.52,0,0,1-4.18-3.27,13.58,13.58,0,0,1-2.36-4.52,16.76,16.76,0,0,1-.77-5,15.49,15.49,0,0,1,.82-4.86,14.75,14.75,0,0,1,2.48-4.53,12.61,12.61,0,0,1,4.16-3.32,13,13,0,0,1,5.86-1.25,13.61,13.61,0,0,1,6.05,1.25,12.09,12.09,0,0,1,4.17,3.34,15,15,0,0,1,2.47,4.53,14.66,14.66,0,0,1,0,9.67,14.92,14.92,0,0,1-2.48,4.54,12.56,12.56,0,0,1-4.14,3.34A12.87,12.87,0,0,1,573.36,395.72Zm.19-2a7.24,7.24,0,0,0,3.84-1,8.24,8.24,0,0,0,2.67-2.65,12.35,12.35,0,0,0,1.54-3.67,16.5,16.5,0,0,0,.5-4,19.23,19.23,0,0,0-.57-4.71,14.06,14.06,0,0,0-1.74-4.09,9,9,0,0,0-2.88-2.86,7.47,7.47,0,0,0-4-1,7.12,7.12,0,0,0-3.85,1,8.27,8.27,0,0,0-2.67,2.69,12.92,12.92,0,0,0-1.55,3.67,16.17,16.17,0,0,0-.51,4,17.76,17.76,0,0,0,.53,4.2,15.43,15.43,0,0,0,1.64,4.12,9.48,9.48,0,0,0,2.84,3.09A7.24,7.24,0,0,0,573.55,393.73Z" transform="translate(-5.43)"/><path class="cls-3" d="M610.91,376.91a8.48,8.48,0,0,0-2.37-5.29,7.24,7.24,0,0,0-5.08-1.89,7.73,7.73,0,0,0-3.66.88,9,9,0,0,0-2.9,2.46,12,12,0,0,0-1.89,3.74,16.05,16.05,0,0,0-.66,4.71,14.63,14.63,0,0,0,1.22,6.16,9.87,9.87,0,0,0,3.37,4.18,8.45,8.45,0,0,0,4.91,1.49,11,11,0,0,0,4.82-1.16,10.62,10.62,0,0,0,4-3.3l1.26,1.06a14,14,0,0,1-3.66,3.63,12.09,12.09,0,0,1-3.87,1.7,16.08,16.08,0,0,1-3.5.44,13.34,13.34,0,0,1-5.26-1,12.22,12.22,0,0,1-4.14-2.89,12.82,12.82,0,0,1-2.67-4.31,14.7,14.7,0,0,1-.94-5.32,16.69,16.69,0,0,1,.84-5.23,15,15,0,0,1,2.48-4.63,11.79,11.79,0,0,1,4.14-3.3,13.05,13.05,0,0,1,5.82-1.22,13.34,13.34,0,0,1,7.37,2.17l-.2-1.91h2.37v8.86Z" transform="translate(-5.43)"/><path class="cls-3" d="M614.3,395.11v-1.72a2.38,2.38,0,0,0,1.76-.61,5,5,0,0,0,1-1.66c.28-.7.58-1.48.91-2.35l7.71-21.1h1.53l8.35,21.41c.21.48.43,1.14.69,2a6.43,6.43,0,0,1,.34,2.12c.43-.05.86-.08,1.28-.1l1.2-.05v2.1h-9.27v-1.68a2.33,2.33,0,0,0,1.77-.59,1.76,1.76,0,0,0,.35-1.36,7.21,7.21,0,0,0-.4-1.6l-1.15-3.09-9.35.23-1.1,3.32c-.15.5-.32,1-.5,1.45s-.35.9-.53,1.33c.46-.05.94-.08,1.47-.09l1.39-.06v2.14ZM621.74,385h8l-2.4-6.45c-.31-.84-.6-1.67-.88-2.5s-.53-1.62-.76-2.39h0q-.3,1-.69,2.1c-.25.77-.54,1.59-.87,2.48Z" transform="translate(-5.43)"/><path class="cls-3" d="M661.12,376.91a8.43,8.43,0,0,0-2.37-5.29,7.22,7.22,0,0,0-5.07-1.89,7.77,7.77,0,0,0-3.67.88,8.91,8.91,0,0,0-2.89,2.46,11.55,11.55,0,0,0-1.89,3.74,15.72,15.72,0,0,0-.67,4.71,14.79,14.79,0,0,0,1.22,6.16,9.82,9.82,0,0,0,3.38,4.18,8.42,8.42,0,0,0,4.9,1.49,11,11,0,0,0,4.83-1.16,10.7,10.7,0,0,0,4-3.3l1.25,1.06a14,14,0,0,1-3.66,3.63,12.09,12.09,0,0,1-3.87,1.7,16.07,16.07,0,0,1-3.49.44,13.35,13.35,0,0,1-5.27-1,12.22,12.22,0,0,1-4.14-2.89,12.82,12.82,0,0,1-2.67-4.31,14.91,14.91,0,0,1-.93-5.32,16.69,16.69,0,0,1,.84-5.23,14.58,14.58,0,0,1,2.48-4.63,11.61,11.61,0,0,1,4.14-3.3,13,13,0,0,1,5.81-1.22,13.47,13.47,0,0,1,3.8.53A13.65,13.65,0,0,1,660.7,370l-.19-1.91h2.36v8.86Z" transform="translate(-5.43)"/><path class="cls-3" d="M676.38,370.08a2.87,2.87,0,0,0-1.79.51,2.21,2.21,0,0,0-.73,1.37,14.81,14.81,0,0,0-.15,2.35V390c0,.69,0,1.31,0,1.85a8.67,8.67,0,0,1-.1,1.32c.44-.05.91-.08,1.44-.1l1.35-.05v2.1H667v-1.68a3.14,3.14,0,0,0,1.82-.54,2.13,2.13,0,0,0,.7-1.37,14.72,14.72,0,0,0,.16-2.33V373.32q0-.84,0-1.62c0-.52,0-1,.08-1.36l-1.41.08-1.38.08v-2.1h9.39Z" transform="translate(-5.43)"/><path class="cls-3" d="M678.29,395.11v-1.72a2.34,2.34,0,0,0,1.75-.61,4.86,4.86,0,0,0,1-1.66c.28-.7.59-1.48.92-2.35l7.71-21.1h1.52l8.36,21.41c.2.48.43,1.14.69,2a6.7,6.7,0,0,1,.34,2.12c.43-.05.86-.08,1.28-.1l1.2-.05v2.1h-9.27v-1.68a2.33,2.33,0,0,0,1.77-.59,1.76,1.76,0,0,0,.34-1.36,6.26,6.26,0,0,0-.4-1.6l-1.14-3.09L685,387l-1.11,3.32c-.15.5-.31,1-.49,1.45s-.36.9-.54,1.33q.69-.08,1.47-.09l1.4-.06v2.14ZM685.73,385h8l-2.4-6.45c-.31-.84-.6-1.67-.88-2.5s-.53-1.62-.76-2.39h0c-.21.64-.43,1.34-.69,2.1s-.55,1.59-.88,2.48Z" transform="translate(-5.43)"/><line class="cls-5" x1="434.15" y1="381.72" x2="218.15" y2="381.72"/><line class="cls-5" x1="961.95" y1="381.72" x2="745.95" y2="381.72"/></g></g></svg>