<?xml version="1.0" encoding="UTF-8"?><svg id="Camada_1" xmlns="http://www.w3.org/2000/svg" viewBox="0 0 898 326.05"><defs><style>.cls-1{fill:#129797;}.cls-2{fill:#064948;}</style></defs><g id="Layer_2"><g id="Layer_1-2"><path class="cls-2" d="M205.4,238.66l-97.64-97.65L206.4,42.37v43.59l-55.07,55.06,54.07,54.07,55.06-55.07h43.59l-98.64,98.65Zm-94.82-97.65l94.82,94.83,93.82-93.83h-37.93l-55.88,55.89-56.89-56.89,55.89-55.88V47.19l-93.82,93.82Z"/><path class="cls-1" d="M299.79,136.76h-43.59l-17.14-17.13-5.92,5.93-21.79-21.79,27.71-27.71,60.72,60.71Zm-42.76-2h37.93l-55.9-55.89-24.89,24.89,18.97,18.96,5.92-5.93,17.96,17.96Z"/><polygon class="cls-2" points="194.45 141.01 138.98 196.49 83.51 141.01 138.98 85.54 138.98 44.78 42.75 141.01 138.98 237.25 235.21 141.01 194.45 141.01"/><g><polygon class="cls-1" points="193.03 97.83 172.65 77.46 134.73 115.38 134.73 135.76 134.73 156.14 155.11 135.76 172.65 118.21 190.2 135.76 230.96 135.76 193.03 97.83"/><path class="cls-1" d="M133.73,158.55v-43.59l38.92-38.92,60.72,60.71h-43.59l-17.14-17.14-38.92,38.93Zm2-42.76v37.93l36.92-36.93,17.96,17.96h37.93l-55.9-55.89-36.92,36.92Z"/></g><path class="cls-2" d="M479.92,280.65v-1.74c.65,.05,1.3-.18,1.78-.62,.44-.49,.78-1.06,1-1.68,.29-.71,.59-1.5,.93-2.38l7.81-21.37h1.54l8.51,21.64c.2,.49,.44,1.16,.69,2,.24,.69,.36,1.42,.35,2.15,.44-.05,.87-.08,1.3-.1s.83,0,1.21-.06v2.13h-9.39v-1.7c.66,.06,1.31-.16,1.8-.6,.3-.39,.42-.88,.35-1.37-.07-.55-.21-1.1-.41-1.62l-1.16-3.14-9.48,.31-1.12,3.36c-.15,.51-.32,1-.5,1.47l-.54,1.35c.46,0,1-.08,1.49-.1h1.41v2.16l-7.57-.09Zm7.54-10.28h8.11l-2.43-6.53c-.31-.85-.61-1.7-.89-2.53s-.54-1.65-.77-2.42h0c-.21,.64-.44,1.35-.7,2.13s-.55,1.61-.89,2.51l-2.43,6.84Z"/><path class="cls-2" d="M506.82,278.95c.65,.01,1.3-.18,1.84-.54,.4-.36,.65-.86,.71-1.39,.12-.78,.17-1.57,.16-2.36v-17.72c0-.53,.05-1,.07-1.37l-1.43,.07-1.39,.08v-2.13h9.86c2.18-.03,4.36,.28,6.45,.92,1.79,.56,3.45,1.47,4.87,2.69,1.34,1.17,2.38,2.63,3.06,4.27,1.33,3.41,1.39,7.19,.15,10.63-.59,1.62-1.52,3.11-2.72,4.35-1.31,1.33-2.89,2.37-4.62,3.07-2.09,.81-4.33,1.21-6.57,1.16h-10.44v-1.73Zm6.8-3.44v1.86c-.01,.44-.04,.88-.1,1.31h3.98c1.47,.03,2.92-.28,4.25-.89,1.22-.58,2.3-1.42,3.15-2.47,.89-1.09,1.57-2.34,2-3.68,.46-1.44,.69-2.93,.68-4.44,.07-2.21-.36-4.4-1.24-6.42-.78-1.7-2.09-3.1-3.73-4-1.92-.98-4.05-1.47-6.2-1.43-.65-.05-1.3,.11-1.86,.45-.41,.34-.67,.84-.73,1.37-.12,.78-.17,1.57-.16,2.36l-.04,15.98Z"/><path class="cls-2" d="M545.67,281l-8.82-20.64c-.38-.91-.72-1.84-1-2.78-.2-.63-.34-1.28-.42-1.94h-2.09v-2.13h9.78v1.74c-.88-.1-1.74,.28-2.26,1-.34,.92-.25,1.94,.25,2.78,.59,1.5,1.17,2.97,1.76,4.41s1.21,2.95,1.87,4.52c.55,1.32,1.06,2.55,1.55,3.71s.91,2.19,1.28,3.09h0c.29-.85,.58-1.7,.89-2.57l1.05-2.88,1.62-4.56c.46-1.28,.88-2.43,1.24-3.44s.68-1.9,1-2.7c.21-.59,.42-1.17,.64-1.72,.18-.47,.39-.93,.64-1.37l-1.51,.07-1.47,.08v-2.13h8.12v1.71c-.91,0-1.78,.33-2.47,.92-.79,.85-1.37,1.88-1.7,3-.19,.46-.37,1-.57,1.49s-.42,1.14-.69,1.85-.59,1.57-1,2.57-.8,2.24-1.33,3.69-1.16,3.18-1.9,5.16-1.6,4.33-2.6,7l-1.86,.07Z"/><path class="cls-2" d="M573.92,281.27c-2.16,.06-4.31-.36-6.28-1.24-1.65-.75-3.1-1.88-4.23-3.3-1.07-1.37-1.89-2.92-2.4-4.58-.5-1.62-.76-3.3-.77-5,.01-1.68,.29-3.34,.83-4.93,.56-1.66,1.41-3.22,2.51-4.58,1.15-1.41,2.59-2.56,4.22-3.36,1.85-.88,3.88-1.32,5.93-1.27,2.11-.06,4.21,.38,6.12,1.27,1.65,.8,3.1,1.95,4.24,3.38,3.25,4.05,4.19,9.48,2.49,14.38-.56,1.67-1.41,3.23-2.51,4.6-1.14,1.42-2.57,2.57-4.2,3.38-1.86,.88-3.9,1.31-5.95,1.25Zm.19-2c1.36,.04,2.71-.31,3.89-1,1.1-.67,2.02-1.59,2.7-2.68,.72-1.14,1.25-2.4,1.57-3.71,.32-1.31,.49-2.65,.5-4,0-1.61-.19-3.22-.58-4.78-.35-1.46-.95-2.86-1.76-4.13-.73-1.18-1.73-2.17-2.91-2.9-1.21-.72-2.59-1.09-4-1.06-1.37-.04-2.73,.3-3.91,1-1.1,.69-2.03,1.62-2.7,2.73-.71,1.15-1.24,2.4-1.57,3.71-.35,1.33-.52,2.7-.52,4.07,.01,1.44,.19,2.87,.54,4.26,.35,1.46,.91,2.87,1.66,4.17,.71,1.25,1.7,2.32,2.88,3.13,1.25,.81,2.72,1.22,4.21,1.18h0Z"/><path class="cls-2" d="M611.95,262.21c-.14-2.01-.99-3.9-2.39-5.35-1.4-1.28-3.24-1.97-5.14-1.91-1.29-.02-2.57,.29-3.71,.89-1.15,.6-2.16,1.45-2.94,2.49-.86,1.14-1.51,2.42-1.91,3.79-.47,1.55-.7,3.15-.68,4.77-.04,2.15,.38,4.27,1.24,6.24,.73,1.7,1.91,3.17,3.42,4.24,1.47,1.01,3.22,1.53,5,1.5,1.7-.01,3.37-.41,4.89-1.18,1.59-.76,2.96-1.91,4-3.34l1.28,1.08c-1,1.44-2.26,2.68-3.71,3.67-1.19,.8-2.52,1.38-3.92,1.72-1.16,.28-2.35,.43-3.54,.45-1.83,.03-3.64-.31-5.33-1-1.59-.67-3.02-1.66-4.2-2.92-1.18-1.27-2.1-2.75-2.7-4.37-.66-1.72-1-3.55-1-5.39,0-1.8,.28-3.59,.85-5.3,.55-1.7,1.4-3.29,2.51-4.69,1.13-1.42,2.56-2.57,4.2-3.35,1.84-.85,3.86-1.28,5.89-1.23,1.3,0,2.6,.18,3.85,.54,1.28,.37,2.49,.93,3.61,1.66l-.19-1.93h2.42v9l-1.8-.08Z"/><path class="cls-2" d="M615.39,280.65v-1.74c.65,.05,1.3-.18,1.78-.62,.46-.48,.82-1.06,1.05-1.68,.28-.71,.59-1.5,.92-2.38l7.81-21.37h1.55l8.46,21.64c.21,.49,.44,1.16,.7,2,.23,.69,.35,1.42,.35,2.15,.43-.05,.87-.08,1.29-.1s.83,0,1.22-.06v2.13h-9.39v-1.7c.65,.06,1.31-.16,1.79-.6,.3-.39,.43-.88,.35-1.37-.07-.55-.2-1.1-.4-1.62l-1.12-3.11-9.47,.24-1.12,3.36c-.16,.51-.33,1-.51,1.47l-.54,1.35c.47,0,1-.08,1.49-.1h1.41v2.16l-7.62-.05Zm7.54-10.28h8.12l-2.44-6.53c-.31-.85-.6-1.7-.89-2.53s-.54-1.65-.77-2.42h0c-.2,.64-.44,1.35-.69,2.13s-.56,1.61-.89,2.51l-2.44,6.84Z"/><path class="cls-2" d="M662.82,262.21c-.14-2.01-.99-3.91-2.4-5.35-1.4-1.29-3.24-1.97-5.14-1.91-1.29-.01-2.57,.29-3.71,.89-1.15,.6-2.15,1.45-2.93,2.49-.86,1.14-1.52,2.42-1.92,3.79-.46,1.55-.69,3.16-.67,4.77-.04,2.14,.38,4.27,1.23,6.24,.73,1.7,1.92,3.16,3.42,4.24,1.47,1.01,3.22,1.53,5,1.5,1.7-.01,3.37-.41,4.89-1.18,1.59-.77,2.96-1.91,4-3.34l1.28,1.08c-1,1.44-2.26,2.69-3.72,3.67-1.19,.8-2.52,1.38-3.92,1.72-1.16,.28-2.35,.43-3.54,.45-1.83,.03-3.64-.31-5.33-1-1.58-.67-3.01-1.67-4.19-2.92-1.19-1.26-2.11-2.75-2.71-4.37-.64-1.72-.96-3.55-.95-5.39,0-1.8,.29-3.59,.85-5.3,.56-1.7,1.41-3.29,2.52-4.69,1.12-1.42,2.56-2.57,4.19-3.35,1.85-.85,3.87-1.28,5.9-1.23,1.28-.02,2.55,.15,3.78,.48,1.28,.37,2.5,.93,3.61,1.66l-.19-1.93h2.4v9l-1.75-.02Z"/><path class="cls-2" d="M678.29,255.3c-.65-.03-1.29,.15-1.82,.52-.41,.36-.66,.85-.73,1.39-.11,.79-.16,1.58-.15,2.38v17.79c-.01,.44-.04,.89-.1,1.33,.44-.05,.92-.08,1.45-.1s1,0,1.37-.06v2.13h-9.55v-1.7c.65,.01,1.3-.18,1.84-.54,.4-.36,.65-.86,.71-1.39,.12-.78,.17-1.57,.16-2.36v-17.75c0-.53,.05-1,.07-1.37l-1.43,.07-1.39,.08v-2.13h9.51l.06,1.71Z"/><path class="cls-2" d="M680.21,280.65v-1.74c.65,.05,1.3-.18,1.78-.62,.44-.49,.78-1.06,1-1.68,.29-.71,.6-1.5,.93-2.38l7.83-21.37h1.55l8.45,21.64c.21,.49,.44,1.16,.7,2,.23,.69,.35,1.42,.34,2.15,.44-.05,.87-.08,1.3-.1s.83,0,1.22-.06v2.13h-9.4v-1.7c.66,.06,1.31-.15,1.8-.6,.3-.39,.43-.88,.35-1.37-.07-.55-.21-1.1-.41-1.62l-1.16-3.14-9.47,.24-1.12,3.36c-.15,.51-.32,1-.5,1.47s-.36,.91-.54,1.35c.46,0,1-.08,1.49-.1h1.41v2.16l-7.55-.02Zm7.54-10.28h8.12l-2.44-6.53c-.31-.85-.6-1.7-.89-2.53s-.54-1.65-.77-2.42h0l-.69,2.13c-.26,.77-.56,1.61-.89,2.51l-2.44,6.84Z"/><path class="cls-2" d="M448.93,267.77h-106c-.28,0-.5-.22-.5-.5s.22-.5,.5-.5h106c.28,0,.5,.22,.5,.5s-.22,.5-.5,.5Z"/><path class="cls-2" d="M846.74,267.77h-106c-.28,0-.5-.22-.5-.5s.22-.5,.5-.5h106c.28,0,.5,.22,.5,.5s-.22,.5-.5,.5Z"/><path class="cls-2" d="M385.09,137.77c-7.89,.17-15.68-1.74-22.59-5.55-6.4-3.63-11.61-9.04-15-15.58-3.53-6.67-5.3-14.47-5.3-23.41,0-5.87,.92-11.7,2.72-17.29,1.78-5.58,4.56-10.8,8.2-15.39,3.69-4.66,8.38-8.44,13.73-11.05,6.01-2.84,12.6-4.25,19.25-4.1,2.92,.01,5.83,.26,8.7,.75,3.03,.51,6,1.27,8.9,2.28,2.75,.94,5.39,2.16,7.89,3.65l-.51-5.8h7.83v29h-5.81c-.26-4.56-1.72-8.97-4.23-12.78-2.31-3.42-5.49-6.16-9.21-7.95-3.88-1.84-8.13-2.77-12.43-2.72-4.24-.04-8.43,.99-12.17,3-3.72,2.03-6.97,4.82-9.53,8.2-2.8,3.7-4.91,7.86-6.25,12.3-1.5,4.92-2.24,10.03-2.2,15.17-.13,7.07,1.18,14.08,3.84,20.63,2.28,5.64,6.06,10.54,10.92,14.19,4.8,3.48,10.6,5.3,16.53,5.18,2.22-.02,4.43-.21,6.62-.57,2.44-.39,4.85-.98,7.2-1.77,2.29-.75,4.47-1.79,6.49-3.09v-14.17c0-2.1,0-4.19,.07-6.25s.06-4,.06-5.74c-1.35,.08-2.86,.17-4.54,.25s-3.16,.17-4.42,.26v-6.92h30.16v5.56c-1.73-.09-3.44,.4-4.86,1.39-1.19,.89-2.1,2.08-2.65,3.46-.55,1.42-.91,2.91-1.07,4.42-.16,1.44-.25,2.9-.25,4.35v19.69h-3.28c-2.09,.04-4.16,.31-6.19,.82-2.7,.66-5.35,1.48-7.95,2.46-2.93,1.01-5.94,1.77-9,2.27-3.19,.56-6.43,.85-9.67,.85Z"/><path class="cls-2" d="M467.11,52.98c-1.95-.13-3.9,.35-5.56,1.39-1.25,.91-2.14,2.22-2.52,3.72-.44,1.71-.65,3.47-.63,5.24v32.68c-.04,4.55,.36,9.09,1.2,13.56,.67,3.74,1.99,7.32,3.91,10.6,1.79,2.97,4.37,5.4,7.45,7,3.58,1.79,7.54,2.7,11.54,2.66,5.64,0,10.27-1.26,13.88-3.79,3.76-2.7,6.6-6.49,8.14-10.85,1.93-5.38,2.89-11.06,2.84-16.78l.25-34.71c0-1.85,0-3.63,.13-5.36s.17-3.22,.25-4.48c-1.43,.09-3,.17-4.67,.25s-3.2,.17-4.54,.26v-6.94h25.49v5.55c-2.78,.08-4.8,.65-6.06,1.7-1.32,1.17-2.18,2.79-2.4,4.54-.37,2.57-.54,5.17-.5,7.77l-.13,30c.06,5.6-.64,11.18-2.08,16.59-1.24,4.68-3.4,9.08-6.35,12.92-2.82,3.63-6.51,6.49-10.72,8.33-4.85,2.04-10.08,3.03-15.34,2.9-6.81,0-12.53-.92-17.16-2.77-4.37-1.68-8.18-4.54-11-8.27-2.9-4.03-4.9-8.63-5.87-13.5-1.24-6.08-1.83-12.27-1.76-18.48v-27.21c0-2.27,.06-4.76,.19-7.45,.12-2.69,.23-4.75,.31-6.18-1.43,.09-3,.15-4.67,.19s-3.19,.11-4.54,.19v-6.82h30.92v5.55Z"/><path class="cls-2" d="M534.49,135.76v-5.56c2.77-.16,4.77-.75,6-1.76,1.31-1.18,2.14-2.8,2.34-4.55,.37-2.55,.54-5.12,.5-7.69V63.7c0-1.85,0-3.63,.13-5.36s.17-3.22,.25-4.48c-1.43,.09-3,.17-4.67,.25s-3.2,.17-4.54,.26v-6.94c5.13-.09,10.3-.15,15.52-.19,5.22-.04,10.46-.02,15.73,.06,7.91,0,14.43,.9,19.56,2.71,5.13,1.81,8.98,4.47,11.55,8,2.56,3.53,3.8,7.99,3.72,13.37,.07,3.44-.62,6.85-2,10-1.6,3.53-4.07,6.6-7.19,8.9-3.37,2.61-7.99,4.59-13.88,5.93,1.76,1.09,3.3,2.5,4.54,4.16,1.33,1.77,2.72,3.74,4.16,5.93l7.7,11.87c1.6,2.52,3.07,4.66,4.42,6.43,1.22,1.66,2.76,3.06,4.54,4.1,1.86,1.01,3.95,1.51,6.06,1.45v5.56h-17.53c-2.11-1.77-4-3.78-5.62-6-1.56-2.14-3.23-4.56-5-7.25l-8.71-14.14c-1.09-1.68-2.25-3.49-3.47-5.42-1.12-1.8-2.46-3.46-4-4.92h-7.85v20.87c0,2.27-.02,4.31-.07,6.12-.01,1.46-.12,2.91-.31,4.35,1-.08,2.08-.15,3.22-.19s2.27-.1,3.4-.19,2.13-.12,3-.12v6.94h-31.5Zm29.53-43.92c4.06,.03,8.08-.72,11.86-2.21,3.15-1.27,5.8-3.53,7.57-6.43,1.76-2.9,2.64-6.66,2.65-11.29,.08-2.98-.43-5.94-1.52-8.71-.93-2.23-2.41-4.19-4.29-5.7-1.95-1.52-4.21-2.6-6.62-3.16-2.71-.64-5.49-.96-8.27-.94-2.69,0-4.65,.5-5.86,1.51-1.29,1.14-2.12,2.71-2.34,4.42-.37,2.46-.54,4.95-.5,7.44v24.73c1.26,.09,2.46,.19,3.59,.32,1.24,.12,2.49,.13,3.73,.02Z"/><path class="cls-2" d="M657.52,137.77c-7.89,.17-15.68-1.74-22.59-5.55-6.4-3.63-11.61-9.04-15-15.58-3.53-6.67-5.29-14.47-5.3-23.41,0-5.87,.92-11.7,2.72-17.29,1.78-5.58,4.56-10.8,8.2-15.39,3.7-4.65,8.4-8.41,13.75-11,6.01-2.84,12.6-4.25,19.25-4.1,2.92,.01,5.83,.26,8.7,.75,3.03,.51,6,1.27,8.9,2.28,2.75,.94,5.39,2.16,7.89,3.65l-.51-5.8h7.82v29h-5.8c-.26-4.58-1.73-9-4.25-12.83-2.31-3.42-5.49-6.16-9.21-7.95-3.88-1.84-8.13-2.77-12.43-2.72-4.25-.04-8.43,.99-12.17,3-3.72,2.03-6.97,4.82-9.53,8.2-2.78,3.69-4.88,7.85-6.21,12.28-1.52,4.92-2.28,10.04-2.25,15.19-.12,7.07,1.19,14.08,3.85,20.63,2.28,5.64,6.06,10.54,10.92,14.19,4.8,3.48,10.6,5.3,16.53,5.18,2.22-.02,4.43-.21,6.62-.57,2.44-.39,4.85-.98,7.2-1.77,2.29-.75,4.47-1.79,6.49-3.09v-14.17c0-2.1,0-4.19,.07-6.25s.06-4,.06-5.74c-1.35,.08-2.86,.17-4.54,.25s-3.16,.17-4.42,.26v-6.92h30.16v5.56c-1.73-.09-3.44,.4-4.86,1.39-1.19,.89-2.1,2.08-2.65,3.46-.55,1.42-.91,2.91-1.07,4.42-.16,1.44-.25,2.9-.25,4.35v19.69h-3.28c-2.09,.04-4.16,.31-6.19,.82-2.7,.66-5.35,1.48-7.95,2.46-2.93,1.01-5.94,1.77-9,2.27-3.19,.56-6.43,.85-9.67,.85Z"/><path class="cls-2" d="M755.31,103.83c0-3.62-.53-6.22-1.58-7.82-1.08-1.63-2.8-2.72-4.73-3-2.59-.4-5.21-.5-7.82-.31l-7.32,.25v26.28c0,2.27-.02,4.27-.07,6-.01,1.42-.12,2.83-.31,4.23l21.7-.26c3.04-.03,6.04-.65,8.84-1.83,2.67-1.2,4.85-3.27,6.18-5.87,1.51-2.78,2.26-6.57,2.27-11.36h5.55l-.75,25.62h-65.62v-5.56c2.78-.16,4.77-.75,6-1.76,1.31-1.18,2.14-2.8,2.34-4.55,.37-2.55,.54-5.12,.5-7.69V63.7c0-1.85,0-3.63,.13-5.36s.17-3.22,.25-4.48c-1.43,.09-3,.17-4.67,.25s-3.2,.17-4.54,.26v-6.94h61.58l.63,22.84h-5.55c0-4.8-.78-8.47-2.34-11-1.35-2.36-3.5-4.15-6.06-5.05-2.58-.85-5.29-1.24-8-1.14l-8.83,.26c-2.06-.13-4.12,.33-5.93,1.32-1.43,1.01-2.38,2.56-2.65,4.29-.48,2.64-.69,5.32-.63,8v19.85h20.82l-.76-10.86h6.94v27.89h-5.57Z"/><path class="cls-2" d="M790.26,135.76v-5.56c2.78-.16,4.77-.75,6-1.76,1.31-1.18,2.14-2.8,2.34-4.55,.37-2.55,.54-5.12,.5-7.69V63.7c0-1.85,0-3.63,.13-5.36s.17-3.22,.25-4.48c-1.43,.09-3,.17-4.67,.25s-3.2,.17-4.54,.26v-6.94h31v5.55c-2.67,.08-4.64,.65-5.93,1.7-1.32,1.17-2.18,2.79-2.4,4.54-.37,2.57-.54,5.17-.5,7.77v52.24c0,2.27-.02,4.27-.06,6-.02,1.42-.13,2.83-.32,4.23l21.33-.26c5.21-.08,9.21-1.78,12-5.11,2.79-3.33,4.18-8.6,4.17-15.83h5.68l-.76,27.51h-64.22Z"/><path class="cls-2" d="M364.1,229.39c-2.96,0-5.91-.36-8.78-1.07-2.77-.68-5.4-1.86-7.75-3.47-2.29-1.58-4.18-3.68-5.51-6.12-1.41-2.78-2.1-5.88-2-9-.03-4.33,1.53-8.53,4.39-11.78,3.14-3.58,7.09-6.36,11.52-8.11-1.75-2.13-3.32-4.4-4.69-6.78-1.09-1.91-1.93-3.95-2.5-6.07-.5-1.93-.76-3.92-.76-5.92-.13-4.6,1.87-9,5.41-11.93,3.53-2.92,8.09-4.38,13.66-4.39,3.18-.07,6.32,.61,9.18,2,2.45,1.21,4.52,3.06,6,5.36,1.43,2.26,2.18,4.88,2.14,7.55,0,2.59-.61,5.13-1.78,7.44-1.33,2.56-3.15,4.83-5.36,6.68-2.76,2.34-5.78,4.35-9,6,1.33,1.33,3.02,3.07,5.05,5.2s4.19,4.33,6.47,6.58c2.31,2.28,4.52,4.41,6.63,6.38,.26-1.04,.47-2.1,.62-3.17,.13-.94,.19-1.9,.2-2.85,.02-1.57-.2-3.14-.66-4.64-.39-1.3-1.13-2.47-2.15-3.37-1.18-.92-2.64-1.41-4.13-1.38v-4.48h17.55v5.4l-7.45-.41c.84,.94,1.46,2.06,1.79,3.27,.4,1.47,.62,2.97,.66,4.49,.05,1.73-.09,3.45-.41,5.15-.36,2.04-.91,4.05-1.63,6l1.94,1.55c.64,.58,1.34,1.17,2.09,1.78,2.38,2.18,4.94,4.16,7.65,5.92,2.17,1.33,3.87,2,5.1,2v4.49h-10c-.61,0-1.94-.6-4-1.79-2.74-1.7-5.33-3.63-7.75-5.76-2.55,2.71-5.57,4.92-8.92,6.53-4.01,1.88-8.39,2.81-12.82,2.72Zm1.83-5.82c3.26,.16,6.52-.46,9.49-1.83,2.46-1.2,4.65-2.9,6.42-5-.61-.54-1.2-1.1-1.78-1.68-.6-.6-1.23-1.16-1.89-1.69-4.35-4.21-8.09-7.87-11.22-11-3.13-3.13-5.88-6.02-8.26-8.67-1.76,1.14-3.24,2.65-4.34,4.43-1,1.62-1.76,3.37-2.24,5.21-.4,1.48-.63,3.01-.66,4.54-.12,3.03,.57,6.04,2,8.72,1.23,2.19,3.07,3.98,5.3,5.15,2.22,1.15,4.68,1.78,7.18,1.82h0Zm-.61-37.23c3.12-2.07,5.71-4.85,7.55-8.11,1.52-2.62,2.36-5.58,2.45-8.61,.11-2.66-.71-5.27-2.3-7.4-1.57-1.96-3.98-3.04-6.48-2.91-2.4-.02-4.67,1.03-6.22,2.86-1.7,1.9-2.55,4.62-2.55,8.16,.06,2.83,.8,5.61,2.14,8.11,1.45,2.86,3.27,5.51,5.41,7.9Z"/><path class="cls-2" d="M472.75,229.39c-6.37,.14-12.67-1.41-18.25-4.49-5.18-2.93-9.4-7.31-12.14-12.6-2.97-5.86-4.44-12.36-4.29-18.92,0-4.75,.73-9.48,2.2-14,1.44-4.52,3.68-8.74,6.63-12.45,2.99-3.77,6.79-6.82,11.11-8.92,4.86-2.3,10.19-3.44,15.56-3.32,2.35,.01,4.69,.22,7,.62,2.44,.4,4.85,1.02,7.19,1.83,2.22,.77,4.36,1.78,6.37,3l-.4-4.69h6.32v23.45h-4.69c-.2-3.71-1.38-7.29-3.41-10.4-1.87-2.76-4.44-4.98-7.45-6.42-3.12-1.48-6.54-2.23-10-2.19-3.43-.04-6.82,.78-9.85,2.39-3,1.64-5.63,3.9-7.7,6.63-2.26,3.01-3.97,6.39-5.05,10-1.21,3.97-1.81,8.09-1.78,12.24-.1,5.71,.96,11.38,3.11,16.67,1.83,4.56,4.88,8.53,8.82,11.48,3.87,2.81,8.54,4.28,13.32,4.2,1.8-.01,3.59-.17,5.36-.46,1.97-.31,3.92-.79,5.81-1.43,1.85-.6,3.62-1.44,5.26-2.49v-11.46c0-1.7,0-3.38,.05-5s0-3.21,0-4.64l-3.67,.21c-1.36,.06-2.55,.13-3.57,.2v-5.61h24.38v4.49c-1.4-.07-2.78,.32-3.93,1.12-.96,.71-1.7,1.68-2.14,2.8-.45,1.14-.75,2.35-.87,3.57-.13,1.17-.2,2.34-.21,3.52v15.92h-2.65c-1.69,.03-3.36,.26-5,.66-2.18,.53-4.32,1.2-6.42,2-2.36,.81-4.78,1.43-7.24,1.83-2.57,.44-5.17,.66-7.78,.66Z"/><path class="cls-2" d="M539.02,160.84c-1.58-.1-3.15,.29-4.49,1.13-.99,.74-1.7,1.8-2,3-.36,1.38-.53,2.81-.51,4.24v26.42c-.02,3.69,.32,7.37,1,11,.54,3.02,1.62,5.92,3.17,8.57,1.44,2.4,3.52,4.36,6,5.66,2.9,1.44,6.1,2.18,9.34,2.14,4.55,0,8.29-1.02,11.22-3.06,3.03-2.19,5.33-5.25,6.58-8.77,1.55-4.35,2.33-8.95,2.29-13.57l.13-28.1c0-1.49,0-2.94,.11-4.33s.13-2.6,.2-3.62c-1.16,.07-2.41,.14-3.77,.2l-3.68,.21v-5.61h20.61v4.48c-1.74-.09-3.46,.4-4.9,1.38-1.07,.95-1.76,2.25-1.94,3.67-.3,2.08-.43,4.18-.4,6.28l-.11,24.27c.05,4.53-.52,9.04-1.68,13.41-.99,3.79-2.72,7.35-5.1,10.46-2.29,2.93-5.27,5.24-8.67,6.73-3.92,1.65-8.14,2.45-12.39,2.35-4.72,.13-9.43-.63-13.87-2.25-3.55-1.34-6.64-3.66-8.93-6.68-2.34-3.26-3.96-6.98-4.74-10.91-1.02-4.91-1.49-9.92-1.43-14.94v-22c0-1.83,.05-3.84,.15-6s.19-3.85,.26-5c-1.16,.07-2.42,.12-3.78,.15-1.36,0-2.58,.09-3.67,.15v-5.5h25v4.44Z"/><path class="cls-2" d="M593.49,227.76v-4.49c1.72,.03,3.41-.47,4.84-1.43,1.06-.95,1.73-2.26,1.89-3.67,.3-2.06,.44-4.14,.41-6.22v-42.45c0-1.49,0-2.94,.1-4.33s.14-2.6,.2-3.62c-1.15,.07-2.41,.14-3.77,.2l-3.67,.21v-5.61c4.15-.07,8.33-.12,12.55-.16,4.22-.04,8.47-.04,12.75,0,5.36-.15,10.7,.59,15.81,2.2,3.7,1.15,6.96,3.41,9.33,6.47,2.16,3.18,3.21,6.98,3,10.82,.05,2.79-.51,5.55-1.63,8.1-1.29,2.86-3.3,5.34-5.82,7.2-3.35,2.38-7.18,4.01-11.22,4.79,1.43,.88,2.67,2.02,3.67,3.37,1.09,1.42,2.21,3.02,3.37,4.79l6.22,9.59c1.29,2.04,2.48,3.77,3.57,5.2,.99,1.34,2.24,2.46,3.67,3.31,1.5,.82,3.19,1.23,4.9,1.18v4.49h-14.17c-1.7-1.43-3.23-3.06-4.54-4.85-1.26-1.73-2.6-3.69-4-5.86l-7-11.43c-.88-1.36-1.82-2.82-2.8-4.38-.9-1.46-1.98-2.81-3.21-4h-6.43v16.83c0,1.83,0,3.48-.05,4.95-.01,1.17-.1,2.35-.26,3.51,.82-.06,1.69-.11,2.61-.15,.91,0,1.83-.08,2.75-.15s1.72-.1,2.4-.1v5.61l-25.47,.08Zm23.87-35.5c3.28,.02,6.53-.59,9.58-1.79,2.55-1.02,4.7-2.85,6.12-5.2,1.54-2.79,2.29-5.95,2.15-9.13,.07-2.39-.35-4.77-1.23-7-.75-1.82-1.94-3.41-3.46-4.65-1.58-1.22-3.41-2.09-5.36-2.54-2.19-.52-4.43-.78-6.68-.77-1.67-.14-3.34,.29-4.74,1.22-1.04,.92-1.72,2.19-1.89,3.57-.3,1.99-.44,3.99-.41,6v20c1,.07,2,.16,2.91,.26,1,.1,2.01,.11,3.01,.03Z"/><path class="cls-2" d="M692.94,229.39c-6.38,.14-12.68-1.41-18.26-4.49-5.18-2.93-9.4-7.31-12.14-12.6-2.96-5.86-4.43-12.36-4.28-18.92,0-4.75,.73-9.48,2.19-14,1.44-4.52,3.68-8.74,6.63-12.45,2.99-3.77,6.79-6.82,11.12-8.92,4.86-2.29,10.18-3.42,15.55-3.29,2.35,.01,4.69,.22,7,.62,2.44,.4,4.85,1.02,7.19,1.83,2.23,.77,4.36,1.78,6.38,3l-.41-4.69h6.32v23.42h-4.69c-.19-3.7-1.36-7.29-3.38-10.4-1.87-2.76-4.43-4.98-7.44-6.42-3.14-1.48-6.58-2.23-10.05-2.19-3.43-.04-6.81,.78-9.84,2.39-3.01,1.64-5.63,3.9-7.7,6.63-2.25,3.01-3.94,6.4-5,10-1.21,3.97-1.82,8.09-1.79,12.24-.1,5.71,.96,11.38,3.12,16.67,1.83,4.56,4.88,8.53,8.82,11.48,3.86,2.81,8.54,4.28,13.31,4.2,1.8-.01,3.59-.17,5.36-.46,1.97-.31,3.92-.79,5.81-1.43,1.85-.6,3.62-1.43,5.25-2.49v-16.46c0-1.62,.05-3.21,.05-4.64l-3.67,.21c-1.36,.06-2.55,.13-3.57,.2v-5.61h24.43v4.49c-1.4-.07-2.78,.32-3.93,1.12-.96,.72-1.7,1.69-2.14,2.8-.44,1.15-.74,2.35-.87,3.57-.13,1.17-.19,2.34-.2,3.52v15.92h-2.65c-1.69,.03-3.36,.25-5,.66-2.18,.53-4.33,1.2-6.43,2-2.36,.81-4.78,1.43-7.24,1.83-2.59,.45-5.22,.67-7.85,.66Z"/><path class="cls-2" d="M771.99,201.95c0-2.92-.43-5.03-1.28-6.32-.87-1.31-2.26-2.18-3.82-2.4-2.09-.33-4.22-.41-6.33-.26l-5.91,.21v26.06c-.02,1.14-.1,2.29-.26,3.42l17.54-.21c2.45-.02,4.88-.53,7.14-1.48,2.16-.96,3.92-2.64,5-4.74,1.23-2.24,1.85-5.3,1.84-9.18h4.49l-.65,20.71h-53v-4.49c1.72,.03,3.42-.47,4.85-1.43,1.05-.95,1.72-2.26,1.89-3.67,.3-2.06,.43-4.14,.4-6.22v-42.45c0-1.49,0-2.94,.11-4.33s.13-2.6,.2-3.62c-1.16,.07-2.41,.14-3.77,.2l-3.68,.21v-5.61h49.78l.51,18.46h-4.49c0-3.88-.63-6.84-1.88-8.88-1.09-1.9-2.83-3.35-4.9-4.08-2.09-.69-4.28-1-6.48-.91l-7.14,.2c-1.67-.1-3.33,.27-4.79,1.07-1.16,.82-1.93,2.07-2.14,3.47-.39,2.14-.56,4.31-.51,6.48v16h16.83l-.62-8.77h5.61v22.54l-4.54,.02Z"/><path class="cls-2" d="M800.24,227.76v-4.49c1.72,.03,3.41-.47,4.84-1.43,1.06-.95,1.73-2.26,1.89-3.67,.3-2.06,.44-4.14,.41-6.22v-42.45c0-1.49,0-2.94,.1-4.33s.14-2.6,.2-3.62c-1.15,.07-2.41,.14-3.77,.2l-3.67,.21v-5.61h25.09v4.48c-1.7-.08-3.39,.41-4.79,1.38-1.07,.95-1.76,2.25-1.94,3.67-.31,2.08-.44,4.18-.41,6.28v42.22c0,1.84,0,3.46-.05,4.85-.02,1.14-.1,2.29-.26,3.42l17.24-.21c4.22-.07,7.45-1.44,9.69-4.13s3.36-6.95,3.37-12.8h4.57l-.61,22.24h-51.9Z"/></g></g></svg>